<svg width="1418" height="877" viewBox="0 0 1418 877" fill="none" xmlns="http://www.w3.org/2000/svg">
<path d="M170.189 825.203C164.144 824.969 158.252 827.108 153.794 831.153C149.336 835.198 146.67 840.823 146.377 846.807C146.188 851.051 147.224 855.262 149.362 858.948L165.803 883.881C165.91 884.256 166.133 884.589 166.44 884.833C166.747 885.077 167.124 885.22 167.517 885.241C167.903 885.224 168.277 885.104 168.599 884.894C168.922 884.684 169.181 884.391 169.35 884.047L187.893 860.756C190.367 857.287 191.792 853.191 192.001 848.948C192.203 842.958 190.036 837.125 185.962 832.69C181.888 828.255 176.229 825.569 170.189 825.203ZM168.66 857.773C166.683 857.68 164.778 857.009 163.185 855.844C161.593 854.679 160.384 853.073 159.712 851.229C159.041 849.385 158.936 847.385 159.412 845.483C159.888 843.581 160.923 841.862 162.385 840.543C163.848 839.224 165.673 838.365 167.63 838.074C169.587 837.783 171.588 838.073 173.379 838.908C175.17 839.743 176.672 841.085 177.694 842.765C178.716 844.444 179.212 846.385 179.12 848.343C178.984 850.964 177.81 853.425 175.851 855.191C173.892 856.957 171.308 857.885 168.66 857.773Z" fill="#B0A79E" fill-opacity="0.05"/>
<path d="M190.011 722.381C194.943 718.879 198.308 713.592 199.374 707.667C200.44 701.742 199.121 695.659 195.704 690.738C193.265 687.259 189.876 684.553 185.934 682.937L157.697 673.206C157.384 672.974 157.004 672.846 156.612 672.84C156.22 672.834 155.834 672.951 155.51 673.173C155.214 673.422 154.991 673.745 154.863 674.108C154.736 674.472 154.709 674.862 154.785 675.237L154.296 705.005C154.452 709.263 155.82 713.377 158.242 716.868C161.736 721.738 167.01 725.039 172.944 726.068C178.877 727.098 185.001 725.775 190.011 722.381ZM171.357 695.638C172.98 694.506 174.899 693.876 176.872 693.828C178.844 693.779 180.782 694.315 182.439 695.367C184.096 696.419 185.398 697.94 186.182 699.737C186.965 701.535 187.193 703.528 186.838 705.465C186.483 707.403 185.561 709.197 184.188 710.621C182.814 712.045 181.052 713.035 179.123 713.466C177.194 713.897 175.186 713.749 173.352 713.042C171.518 712.334 169.94 711.098 168.819 709.491C167.328 707.331 166.758 704.664 167.233 702.07C167.709 699.476 169.19 697.165 171.357 695.638Z" fill="#B0A79E" fill-opacity="0.05"/>
<path d="M-47.2773 722.383C-43.8931 727.397 -38.6866 730.886 -32.7887 732.092C-26.8908 733.298 -20.7778 732.124 -15.7774 728.825C-12.2419 726.469 -9.45663 723.145 -7.74737 719.242L2.64987 691.244C2.88933 690.936 3.02625 690.56 3.04147 690.168C3.0567 689.776 2.94948 689.388 2.7348 689.058C2.49292 688.757 2.1751 688.526 1.81488 688.39C1.45465 688.254 1.06537 688.217 0.688118 688.285L-29.0592 687.091C-33.3196 687.145 -37.4657 688.416 -41.0128 690.754C-45.9636 694.131 -49.3886 699.326 -50.5586 705.234C-51.7287 711.141 -50.5514 717.294 -47.2773 722.383ZM-20.0995 704.368C-19.0061 706.018 -18.4216 707.951 -18.4201 709.925C-18.4185 711.898 -18.9999 713.822 -20.0908 715.454C-21.1816 717.085 -22.7329 718.351 -24.5485 719.092C-26.3641 719.832 -28.3624 720.013 -30.2908 719.612C-32.2191 719.212 -33.9909 718.247 -35.3821 716.841C-36.7732 715.434 -37.7213 713.648 -38.1063 711.71C-38.4914 709.772 -38.2961 707.767 -37.5453 705.95C-36.7944 704.134 -35.5217 702.586 -33.888 701.503C-31.6936 700.064 -29.014 699.557 -26.432 700.094C-23.8499 700.63 -21.5742 702.166 -20.0995 704.368Z" fill="#B0A79E" fill-opacity="0.05"/>
<path d="M-8.9172 553.943C-5.12364 558.655 0.357578 561.694 6.33596 562.4C12.3143 563.107 18.3071 561.423 23.0125 557.715C26.3376 555.07 28.8337 551.524 30.209 547.491L38.217 518.719C38.4297 518.392 38.5345 518.005 38.5168 517.613C38.499 517.221 38.3596 516.844 38.1179 516.533C37.8516 516.253 37.5155 516.05 37.1451 515.945C36.7747 515.839 36.3838 515.836 36.0135 515.935L6.27107 517.244C2.0303 517.656 -1.99438 519.271 -5.3324 521.9C-9.982 525.68 -12.9584 531.145 -13.6279 537.13C-14.2974 543.115 -12.6073 549.147 -8.9172 553.943ZM16.6508 533.708C17.879 535.26 18.6238 537.137 18.7912 539.104C18.9585 541.07 18.5408 543.036 17.591 544.753C16.6411 546.471 15.2016 547.863 13.4547 548.753C11.7077 549.643 9.73165 549.992 7.77644 549.755C5.82124 549.517 3.97467 548.705 2.47025 547.42C0.965828 546.135 -0.128887 544.436 -0.675442 542.537C-1.222 540.638 -1.19585 538.624 -0.600319 536.75C-0.00478745 534.877 1.13338 533.228 2.67028 532.011C4.73604 530.393 7.36357 529.663 9.98158 529.981C12.5996 530.298 14.9964 531.638 16.6508 533.708Z" fill="#B0A79E" fill-opacity="0.05"/>
<path d="M47.0657 461.634C45.0045 467.321 45.2488 473.584 47.7457 479.061C50.2425 484.539 54.7901 488.79 60.4008 490.89C64.3867 492.361 68.7131 492.656 72.8743 491.74L101.628 483.665C102.018 483.677 102.403 483.566 102.728 483.348C103.054 483.129 103.305 482.814 103.445 482.446C103.546 482.073 103.546 481.681 103.444 481.309C103.342 480.938 103.142 480.602 102.865 480.337L86.3199 455.586C83.7682 452.174 80.3004 449.571 76.3218 448.08C70.6777 446.065 64.4619 446.355 58.9977 448.886C53.5335 451.418 49.2524 455.991 47.0657 461.634ZM77.6271 473C76.9372 474.854 75.7181 476.465 74.1239 477.628C72.5297 478.791 70.632 479.453 68.6708 479.532C66.7096 479.611 64.7729 479.102 63.1058 478.07C61.4386 477.038 60.1158 475.529 59.3046 473.734C58.4935 471.94 58.2303 469.94 58.5486 467.987C58.8668 466.034 59.752 464.217 61.0924 462.765C62.4327 461.312 64.168 460.29 66.0787 459.828C67.9894 459.365 69.9898 459.483 71.8268 460.166C74.2821 461.093 76.2689 462.961 77.355 465.364C78.4412 467.767 78.539 470.511 77.6271 473Z" fill="#B0A79E" fill-opacity="0.05"/>
<path d="M29.9531 829.643C35.1302 832.772 41.3205 833.751 47.1796 832.369C53.0387 830.986 58.0932 827.353 61.2455 822.259C63.4646 818.636 64.5963 814.45 64.5084 810.19L62.1856 780.414C62.2735 780.034 62.2397 779.635 62.0889 779.273C61.9381 778.911 61.6778 778.604 61.3445 778.394C60.9984 778.223 60.613 778.147 60.229 778.174C59.8449 778.202 59.4764 778.333 59.1623 778.552L31.6642 789.962C27.8206 791.801 24.5915 794.695 22.3547 798.308C19.2799 803.451 18.3535 809.605 19.7726 815.457C21.1918 821.31 24.8445 826.399 29.9531 829.643ZM47.0517 801.879C48.7368 802.917 50.0793 804.426 50.9095 806.216C51.7396 808.007 52.0201 809.997 51.7154 811.936C51.4107 813.875 50.5346 815.675 49.1978 817.11C47.861 818.544 46.1235 819.548 44.2052 819.994C42.2869 820.44 40.2738 820.309 38.4205 819.617C36.5672 818.924 34.957 817.702 33.7934 816.105C32.6299 814.507 31.9653 812.606 31.8836 810.642C31.802 808.678 32.307 806.739 33.3348 805.07C34.7218 802.842 36.9409 801.257 39.5096 800.659C42.0782 800.062 44.7887 800.5 47.0517 801.879Z" fill="#B0A79E" fill-opacity="0.05"/>
<path d="M149.768 648.364C152.191 642.822 152.351 636.556 150.212 630.929C148.073 625.302 143.808 620.768 138.344 618.311C134.461 616.586 130.163 616.013 125.951 616.659L96.7376 622.867C96.3492 622.83 95.9581 622.916 95.6189 623.113C95.2797 623.31 95.0093 623.608 94.8456 623.966C94.7207 624.331 94.6959 624.723 94.7738 625.101C94.8517 625.478 95.0294 625.826 95.2883 626.108L110.206 651.872C112.533 655.442 115.826 658.263 119.7 660.007C125.203 662.381 131.425 662.492 137.041 660.318C142.656 658.143 147.223 653.854 149.768 648.364ZM120.002 635.055C120.81 633.248 122.13 631.719 123.796 630.662C125.462 629.604 127.398 629.065 129.36 629.112C131.322 629.16 133.222 629.793 134.82 630.93C136.417 632.067 137.64 633.658 138.334 635.501C139.028 637.344 139.162 639.357 138.718 641.285C138.275 643.213 137.275 644.97 135.844 646.333C134.413 647.696 132.615 648.604 130.679 648.943C128.742 649.281 126.753 649.035 124.964 648.235C122.574 647.152 120.711 645.16 119.782 642.692C118.853 640.224 118.932 637.479 120.002 635.055Z" fill="#B0A79E" fill-opacity="0.05"/>
<path d="M332.051 792.252C327.336 788.463 321.331 786.668 315.34 787.259C309.349 787.85 303.856 790.779 300.054 795.409C297.373 798.705 295.695 802.703 295.215 806.937L293.557 836.757C293.42 837.122 293.4 837.522 293.501 837.901C293.603 838.28 293.82 838.619 294.122 838.871C294.443 839.087 294.814 839.214 295.199 839.237C295.583 839.261 295.966 839.18 296.306 839.004L325.077 831.353C329.131 830.042 332.717 827.602 335.414 824.32C339.146 819.631 340.882 813.655 340.254 807.666C339.626 801.677 336.683 796.146 332.051 792.252ZM311.412 817.495C309.879 816.243 308.75 814.568 308.165 812.684C307.58 810.799 307.567 808.789 308.127 806.908C308.687 805.026 309.794 803.358 311.31 802.115C312.826 800.871 314.681 800.107 316.642 799.92C318.603 799.733 320.58 800.131 322.325 801.063C324.07 801.996 325.503 803.421 326.444 805.159C327.385 806.898 327.791 808.87 327.61 810.828C327.43 812.785 326.672 814.64 325.431 816.157C323.76 818.181 321.35 819.457 318.724 819.707C316.099 819.958 313.471 819.163 311.412 817.495Z" fill="#B0A79E" fill-opacity="0.05"/>
<path d="M211.841 561.408C217.126 564.35 223.348 565.109 229.154 563.518C234.96 561.927 239.881 558.116 242.85 552.913C244.938 549.213 245.92 544.989 245.68 540.735L242.297 511.061C242.371 510.678 242.323 510.28 242.159 509.924C241.996 509.567 241.725 509.27 241.384 509.072C241.032 508.913 240.644 508.851 240.261 508.892C239.879 508.934 239.515 509.077 239.209 509.308L212.135 521.692C208.36 523.666 205.236 526.674 203.129 530.364C200.24 535.614 199.534 541.796 201.161 547.594C202.788 553.393 206.62 558.349 211.841 561.408ZM227.938 533.052C229.659 534.029 231.055 535.49 231.948 537.249C232.842 539.008 233.193 540.987 232.958 542.936C232.722 544.885 231.911 546.715 230.626 548.196C229.341 549.677 227.641 550.743 225.74 551.257C223.838 551.771 221.822 551.712 219.945 551.086C218.068 550.46 216.416 549.296 215.196 547.741C213.976 546.187 213.244 544.31 213.092 542.35C212.941 540.39 213.376 538.434 214.344 536.73C215.65 534.454 217.812 532.791 220.357 532.102C222.903 531.413 225.627 531.755 227.938 533.052Z" fill="#B0A79E" fill-opacity="0.05"/>
<path d="M374.505 645.32C372.864 639.497 369.015 634.552 363.793 631.557C358.57 628.562 352.397 627.76 346.615 629.325C342.519 630.453 338.831 632.736 335.984 635.906L317.331 659.231C317.007 659.448 316.759 659.763 316.622 660.13C316.485 660.497 316.465 660.9 316.565 661.28C316.7 661.642 316.93 661.961 317.229 662.203C317.529 662.445 317.887 662.602 318.266 662.656L346.138 673.119C350.201 674.403 354.536 674.497 358.638 673.389C364.398 671.735 369.279 667.876 372.243 662.633C375.207 657.391 376.018 651.179 374.505 645.32ZM343.049 653.903C342.528 651.994 342.579 649.974 343.197 648.1C343.814 646.226 344.97 644.581 346.517 643.374C348.065 642.167 349.935 641.451 351.891 641.318C353.847 641.184 355.801 641.639 357.507 642.624C359.212 643.609 360.592 645.081 361.472 646.853C362.352 648.625 362.692 650.617 362.45 652.579C362.208 654.54 361.394 656.382 360.111 657.872C358.828 659.362 357.134 660.432 355.243 660.948C352.708 661.627 350.005 661.267 347.721 659.948C345.438 658.629 343.759 656.456 343.049 653.903Z" fill="#B0A79E" fill-opacity="0.05"/>
<path d="M373.029 873.873C375.94 879.176 380.805 883.127 386.568 884.868C392.33 886.61 398.525 886 403.807 883.173C407.543 881.151 410.621 878.096 412.681 874.366L425.599 847.439C425.866 847.154 426.037 846.792 426.088 846.403C426.139 846.014 426.068 845.618 425.884 845.269C425.671 844.947 425.376 844.688 425.029 844.52C424.683 844.351 424.299 844.279 423.917 844.312L394.404 840.398C390.157 840.061 385.912 840.947 382.165 842.951C376.926 845.86 373.039 850.72 371.333 856.495C369.627 862.27 370.235 868.505 373.029 873.873ZM401.743 858.423C402.681 860.166 403.086 862.145 402.907 864.11C402.727 866.075 401.972 867.938 400.736 869.463C399.501 870.988 397.84 872.107 395.964 872.677C394.088 873.248 392.082 873.246 390.198 872.67C388.315 872.094 386.639 870.971 385.382 869.443C384.126 867.915 383.345 866.05 383.14 864.085C382.934 862.119 383.312 860.141 384.226 858.401C385.14 856.66 386.549 855.236 388.275 854.307C390.592 853.075 393.307 852.816 395.829 853.587C398.351 854.358 400.477 856.096 401.743 858.423Z" fill="#B0A79E" fill-opacity="0.05"/>
<path d="M551.856 790.993C546.024 789.386 539.8 790.123 534.536 793.044C529.272 795.965 525.393 800.833 523.742 806.592C522.589 810.681 522.636 815.018 523.877 819.094L534.193 847.121C534.212 847.511 534.353 847.886 534.596 848.194C534.839 848.501 535.173 848.726 535.551 848.837C535.931 848.909 536.322 848.877 536.684 848.746C537.046 848.615 537.366 848.39 537.608 848.093L560.978 829.649C564.178 826.836 566.501 823.174 567.673 819.09C569.237 813.305 568.458 807.131 565.504 801.883C562.55 796.636 557.653 792.728 551.856 790.993ZM542.934 822.355C541.03 821.813 539.329 820.725 538.044 819.227C536.759 817.73 535.949 815.89 535.716 813.941C535.483 811.992 535.838 810.022 536.735 808.278C537.632 806.535 539.032 805.097 540.757 804.147C542.483 803.197 544.456 802.777 546.427 802.941C548.399 803.104 550.281 803.843 551.834 805.065C553.387 806.287 554.543 807.936 555.155 809.805C555.766 811.673 555.806 813.676 555.27 815.561C554.54 818.082 552.834 820.21 550.524 821.482C548.214 822.754 545.486 823.068 542.934 822.355Z" fill="#B0A79E" fill-opacity="0.05"/>
<path d="M280.589 662.108C274.577 661.438 268.546 663.145 263.807 666.857C259.067 670.569 256.002 675.986 255.277 681.933C254.781 686.153 255.509 690.428 257.375 694.258L271.97 720.316C272.049 720.698 272.247 721.046 272.536 721.311C272.825 721.577 273.19 721.746 273.58 721.797C273.966 721.807 274.348 721.715 274.685 721.529C275.022 721.342 275.302 721.069 275.495 720.738L295.674 698.849C298.393 695.568 300.11 691.587 300.626 687.369C301.261 681.41 299.522 675.436 295.779 670.718C292.037 666 286.587 662.911 280.589 662.108ZM276.708 694.483C274.743 694.247 272.891 693.44 271.387 692.163C269.883 690.886 268.793 689.197 268.257 687.309C267.721 685.421 267.761 683.419 268.373 681.556C268.985 679.693 270.142 678.053 271.696 676.844C273.25 675.635 275.133 674.91 277.106 674.761C279.079 674.612 281.053 675.047 282.779 676.009C284.505 676.971 285.906 678.418 286.804 680.167C287.701 681.916 288.056 683.888 287.823 685.835C287.498 688.439 286.148 690.808 284.066 692.428C281.985 694.047 279.341 694.786 276.708 694.483Z" fill="#B0A79E" fill-opacity="0.05"/>
<path d="M389.155 588.018C387.271 593.766 387.71 600.018 390.375 605.416C393.041 610.813 397.719 614.92 403.392 616.845C407.421 618.192 411.755 618.352 415.886 617.308L444.374 608.343C444.765 608.343 445.146 608.221 445.465 607.992C445.784 607.764 446.024 607.441 446.153 607.069C446.243 606.693 446.23 606.301 446.116 605.933C446.003 605.565 445.793 605.235 445.508 604.978L428.202 580.754C425.546 577.423 421.999 574.928 417.976 573.562C412.272 571.723 406.068 572.206 400.685 574.906C395.302 577.605 391.165 582.31 389.155 588.018ZM420.054 598.429C419.422 600.304 418.254 601.952 416.696 603.164C415.139 604.375 413.263 605.097 411.305 605.236C409.347 605.376 407.396 604.927 405.697 603.948C403.999 602.968 402.63 601.501 401.763 599.732C400.897 597.964 400.572 595.973 400.829 594.011C401.087 592.05 401.915 590.206 403.21 588.712C404.504 587.219 406.207 586.144 408.102 585.622C409.998 585.1 412.001 585.156 413.858 585.782C416.341 586.632 418.385 588.437 419.545 590.806C420.705 593.174 420.888 595.913 420.054 598.429Z" fill="#B0A79E" fill-opacity="0.05"/>
<path d="M485.905 765.593C481.628 761.316 475.852 758.883 469.832 758.823C463.813 758.763 458.035 761.08 453.755 765.272C450.733 768.259 448.633 772.052 447.698 776.209L442.826 805.675C442.65 806.023 442.587 806.419 442.647 806.807C442.707 807.194 442.886 807.555 443.16 807.838C443.454 808.087 443.81 808.253 444.19 808.318C444.57 808.383 444.959 808.345 445.316 808.207L474.746 803.711C478.918 802.846 482.746 800.808 485.782 797.836C489.999 793.578 492.371 787.825 492.394 781.803C492.417 775.781 490.089 769.965 485.905 765.593ZM462.658 788.457C461.271 787.046 460.328 785.259 459.951 783.322C459.573 781.385 459.777 779.386 460.537 777.576C461.297 775.766 462.579 774.228 464.22 773.155C465.862 772.083 467.789 771.524 469.758 771.55C471.727 771.576 473.651 772.185 475.284 773.301C476.918 774.417 478.189 775.989 478.936 777.818C479.684 779.648 479.874 781.653 479.483 783.579C479.092 785.506 478.138 787.268 476.74 788.642C474.86 790.473 472.326 791.481 469.689 791.446C467.052 791.412 464.525 790.337 462.658 788.457Z" fill="#B0A79E" fill-opacity="0.05"/>
<path d="M636.583 758.399C638.834 752.784 638.8 746.517 636.488 740.959C634.177 735.4 629.775 730.999 624.237 728.712C620.303 727.108 615.989 726.668 611.8 727.443L582.791 734.549C582.402 734.524 582.014 734.622 581.681 734.829C581.348 735.036 581.087 735.343 580.934 735.706C580.82 736.075 580.808 736.467 580.897 736.842C580.987 737.216 581.175 737.559 581.443 737.833L597.148 763.125C599.583 766.621 602.962 769.34 606.888 770.963C612.461 773.166 618.683 773.086 624.229 770.739C629.776 768.392 634.208 763.965 636.583 758.399ZM606.42 746.014C607.172 744.183 608.445 742.614 610.077 741.506C611.709 740.397 613.628 739.798 615.591 739.786C617.554 739.773 619.472 740.346 621.104 741.434C622.735 742.521 624.007 744.073 624.757 745.894C625.508 747.715 625.703 749.723 625.32 751.664C624.936 753.605 623.99 755.391 622.602 756.798C621.214 758.204 619.445 759.168 617.52 759.566C615.595 759.964 613.599 759.779 611.786 759.034C609.364 758.026 607.441 756.092 606.436 753.654C605.431 751.216 605.425 748.47 606.42 746.014Z" fill="#B0A79E" fill-opacity="0.05"/>
<path d="M321.375 507.291C316.453 510.808 313.104 516.106 312.056 522.034C311.008 527.962 312.345 534.042 315.777 538.952C318.226 542.423 321.623 545.119 325.57 546.723L353.836 556.37C354.15 556.601 354.53 556.727 354.922 556.732C355.314 556.737 355.699 556.619 356.023 556.396C356.318 556.146 356.54 555.822 356.667 555.459C356.793 555.095 356.819 554.705 356.742 554.329L357.141 524.561C356.973 520.303 355.592 516.193 353.159 512.709C349.652 507.85 344.367 504.565 338.43 503.553C332.494 502.542 326.374 503.883 321.375 507.291ZM340.109 533.979C338.489 535.116 336.572 535.752 334.599 535.806C332.627 535.86 330.688 535.33 329.028 534.283C327.367 533.236 326.06 531.719 325.272 529.924C324.483 528.129 324.249 526.136 324.598 524.198C324.947 522.26 325.864 520.463 327.233 519.034C328.602 517.606 330.361 516.611 332.289 516.174C334.216 515.738 336.225 515.879 338.061 516.581C339.898 517.283 341.479 518.514 342.605 520.119C344.102 522.274 344.68 524.939 344.213 527.534C343.745 530.13 342.271 532.446 340.109 533.979Z" fill="#B0A79E" fill-opacity="0.05"/>
<path d="M531.91 542.639C537.886 541.698 543.252 538.46 546.843 533.629C550.434 528.797 551.961 522.762 551.091 516.835C550.455 512.634 548.624 508.703 545.813 505.501L524.858 484.221C524.68 483.874 524.397 483.59 524.049 483.41C523.7 483.23 523.303 483.163 522.913 483.218C522.538 483.309 522.194 483.499 521.918 483.768C521.642 484.037 521.445 484.374 521.346 484.744L507.661 511.184C505.905 515.066 505.299 519.36 505.914 523.563C506.876 529.479 510.13 534.782 514.985 538.345C519.841 541.908 525.913 543.448 531.91 542.639ZM527.107 510.388C529.064 510.097 531.063 510.386 532.851 511.221C534.639 512.056 536.136 513.398 537.152 515.077C538.168 516.756 538.657 518.698 538.558 520.656C538.46 522.615 537.777 524.501 536.597 526.078C535.417 527.655 533.793 528.851 531.929 529.516C530.066 530.18 528.047 530.282 526.128 529.809C524.209 529.337 522.476 528.311 521.148 526.861C519.821 525.411 518.958 523.602 518.669 521.664C518.295 519.066 518.972 516.424 520.552 514.313C522.132 512.201 524.487 510.791 527.107 510.388Z" fill="#B0A79E" fill-opacity="0.05"/>
<path d="M526.078 616.941C524.531 611.093 520.762 606.086 515.589 603.007C510.416 599.928 504.257 599.026 498.45 600.498C494.336 601.56 490.612 603.783 487.714 606.906L468.687 629.926C468.359 630.138 468.106 630.449 467.963 630.814C467.82 631.179 467.793 631.581 467.887 631.963C468.017 632.327 468.241 632.649 468.536 632.896C468.832 633.143 469.187 633.306 469.566 633.366L497.265 644.278C501.306 645.628 505.64 645.792 509.759 644.75C515.545 643.189 520.488 639.41 523.536 634.216C526.584 629.022 527.496 622.824 526.078 616.941ZM494.487 625.015C493.997 623.098 494.081 621.079 494.729 619.215C495.376 617.351 496.558 615.726 498.125 614.543C499.692 613.361 501.573 612.676 503.531 612.574C505.489 612.472 507.436 612.958 509.125 613.971C510.815 614.984 512.17 616.477 513.022 618.263C513.873 620.049 514.181 622.047 513.907 624.004C513.633 625.962 512.789 627.79 511.482 629.259C510.176 630.728 508.465 631.771 506.566 632.256C504.02 632.894 501.323 632.49 499.061 631.135C496.799 629.779 495.155 627.579 494.487 625.015Z" fill="#B0A79E" fill-opacity="0.05"/>
<path d="M667.975 598.45C670.694 593.046 671.19 586.798 669.358 581.064C667.525 575.329 663.511 570.572 658.188 567.824C654.404 565.892 650.142 565.088 645.902 565.506L616.396 570.13C616.01 570.072 615.615 570.137 615.266 570.315C614.917 570.493 614.631 570.777 614.448 571.125C614.303 571.484 614.257 571.874 614.315 572.255C614.372 572.635 614.531 572.993 614.774 573.289L628.282 599.82C630.412 603.509 633.549 606.504 637.323 608.454C642.69 611.121 648.896 611.568 654.621 609.699C660.346 607.831 665.138 603.794 667.975 598.45ZM638.97 583.555C639.874 581.794 641.275 580.339 642.995 579.372C644.715 578.406 646.678 577.972 648.635 578.125C650.592 578.279 652.455 579.013 653.988 580.234C655.522 581.456 656.657 583.11 657.251 584.988C657.844 586.866 657.87 588.884 657.323 590.785C656.776 592.686 655.683 594.386 654.18 595.67C652.678 596.954 650.834 597.764 648.882 597.998C646.93 598.231 644.958 597.878 643.214 596.983C640.885 595.773 639.133 593.683 638.338 591.169C637.544 588.654 637.77 585.918 638.97 583.555Z" fill="#B0A79E" fill-opacity="0.05"/>
<path d="M939.387 875.075C943.356 870.509 945.38 864.577 945.02 858.568C944.66 852.559 941.945 846.958 937.465 842.98C934.274 840.174 930.343 838.343 926.131 837.701L896.397 834.897C896.038 834.746 895.639 834.711 895.256 834.797C894.874 834.884 894.526 835.088 894.263 835.381C894.035 835.692 893.894 836.059 893.856 836.442C893.817 836.825 893.883 837.211 894.046 837.558L900.584 866.602C901.738 870.703 904.038 874.38 907.214 877.202C911.757 881.111 917.661 883.076 923.67 882.679C929.679 882.282 935.318 879.553 939.387 875.075ZM914.957 853.479C916.268 851.997 917.985 850.932 919.891 850.42C921.796 849.909 923.805 849.973 925.664 850.605C927.522 851.236 929.146 852.408 930.331 853.97C931.515 855.532 932.207 857.416 932.318 859.382C932.43 861.349 931.956 863.31 930.957 865.017C929.958 866.725 928.479 868.102 926.706 868.975C924.933 869.849 922.946 870.178 920.997 869.923C919.048 869.667 917.223 868.838 915.755 867.54C913.797 865.792 912.615 863.335 912.466 860.702C912.316 858.069 913.212 855.473 914.957 853.479Z" fill="#B0A79E" fill-opacity="0.05"/>
<path d="M924.858 727.54C930.845 726.677 936.253 723.509 939.907 718.724C943.56 713.94 945.165 707.926 944.372 701.987C943.79 697.779 942.01 693.824 939.241 690.586L918.563 669.036C918.39 668.687 918.111 668.399 917.765 668.215C917.418 668.031 917.022 667.958 916.632 668.008C916.255 668.094 915.909 668.28 915.63 668.545C915.35 668.81 915.148 669.145 915.045 669.514L901.018 695.774C899.212 699.633 898.551 703.918 899.112 708.13C899.996 714.057 903.182 719.402 907.991 723.028C912.799 726.653 918.851 728.272 924.858 727.54ZM920.473 695.23C922.434 694.964 924.429 695.28 926.206 696.138C927.983 696.995 929.462 698.356 930.456 700.049C931.45 701.741 931.915 703.689 931.791 705.646C931.667 707.603 930.96 709.481 929.759 711.042C928.559 712.604 926.919 713.779 925.047 714.419C923.175 715.059 921.155 715.135 919.242 714.637C917.33 714.14 915.61 713.091 914.302 711.625C912.993 710.158 912.154 708.338 911.89 706.396C911.55 703.793 912.261 701.161 913.868 699.07C915.475 696.979 917.849 695.599 920.473 695.23Z" fill="#B0A79E" fill-opacity="0.05"/>
<path d="M736.137 677.542C730.45 675.48 724.187 675.724 718.709 678.22C713.231 680.716 708.98 685.263 706.879 690.873C705.407 694.859 705.112 699.185 706.027 703.347L714.099 732.101C714.086 732.491 714.197 732.876 714.416 733.202C714.634 733.528 714.949 733.779 715.317 733.919C715.69 734.02 716.082 734.02 716.454 733.918C716.825 733.816 717.161 733.616 717.427 733.34L742.179 716.797C745.591 714.246 748.196 710.779 749.687 706.8C751.702 701.156 751.414 694.941 748.883 689.476C746.352 684.011 741.779 679.73 736.137 677.542ZM724.767 708.102C722.912 707.412 721.302 706.193 720.139 704.598C718.977 703.004 718.314 701.106 718.236 699.145C718.157 697.184 718.666 695.247 719.699 693.58C720.731 691.913 722.24 690.591 724.034 689.78C725.829 688.969 727.83 688.706 729.782 689.024C731.735 689.343 733.552 690.228 735.004 691.569C736.456 692.909 737.478 694.645 737.94 696.555C738.402 698.466 738.284 700.467 737.601 702.304C736.674 704.759 734.806 706.745 732.402 707.831C729.999 708.917 727.255 709.014 724.767 708.102Z" fill="#B0A79E" fill-opacity="0.05"/>
<path d="M791.028 544.957C792.948 539.221 792.548 532.966 789.917 527.552C787.285 522.138 782.633 518.001 776.972 516.041C772.951 514.669 768.619 514.481 764.482 515.499L735.937 524.285C735.547 524.282 735.165 524.402 734.844 524.629C734.524 524.855 734.281 525.176 734.15 525.547C734.058 525.923 734.069 526.315 734.18 526.684C734.291 527.053 734.499 527.384 734.782 527.642L751.935 551.975C754.571 555.323 758.102 557.84 762.116 559.232C767.809 561.106 774.015 560.663 779.415 557.997C784.815 555.331 788.982 550.652 791.028 544.957ZM760.194 534.352C760.838 532.48 762.017 530.84 763.582 529.638C765.147 528.436 767.027 527.727 768.986 527.6C770.945 527.472 772.893 527.933 774.586 528.923C776.278 529.914 777.638 531.389 778.493 533.163C779.348 534.938 779.661 536.931 779.391 538.89C779.121 540.85 778.281 542.689 776.977 544.174C775.674 545.659 773.964 546.724 772.065 547.234C770.167 547.743 768.164 547.675 766.311 547.038C763.833 546.172 761.801 544.354 760.655 541.978C759.51 539.603 759.344 536.862 760.194 534.352Z" fill="#B0A79E" fill-opacity="0.05"/>
<path d="M823.225 441.998C817.176 442.039 811.387 444.441 807.116 448.683C802.845 452.926 800.437 458.666 800.414 464.657C800.417 468.905 801.642 473.065 803.945 476.65L821.496 500.815C821.62 501.185 821.857 501.507 822.175 501.737C822.493 501.967 822.875 502.093 823.269 502.097C823.654 502.062 824.022 501.925 824.335 501.701C824.648 501.476 824.893 501.172 825.046 500.821L842.518 476.715C844.832 473.138 846.071 468.982 846.089 464.734C846.019 458.741 843.591 453.012 839.321 448.766C835.051 444.52 829.276 442.091 823.225 441.998ZM823.17 474.605C821.191 474.601 819.257 474.017 817.614 472.925C815.97 471.834 814.69 470.284 813.936 468.472C813.181 466.66 812.987 464.667 813.376 462.745C813.765 460.823 814.721 459.059 816.123 457.676C817.525 456.292 819.309 455.351 821.251 454.972C823.193 454.593 825.204 454.793 827.032 455.546C828.859 456.299 830.419 457.572 831.516 459.204C832.613 460.835 833.196 462.752 833.193 464.712C833.176 467.336 832.113 469.848 830.237 471.7C828.36 473.553 825.82 474.597 823.17 474.605Z" fill="#B0A79E" fill-opacity="0.05"/>
<path d="M774.396 827.1C779.066 830.946 785.049 832.811 791.046 832.291C797.044 831.772 802.571 828.909 806.428 824.324C809.148 821.061 810.874 817.082 811.403 812.855L813.415 783.056C813.557 782.693 813.582 782.293 813.485 781.913C813.388 781.533 813.175 781.191 812.876 780.936C812.558 780.716 812.188 780.585 811.804 780.557C811.42 780.529 811.036 780.605 810.694 780.776L781.833 788.085C777.764 789.348 774.15 791.745 771.414 794.995C767.627 799.64 765.819 805.594 766.376 811.59C766.933 817.586 769.811 823.151 774.396 827.1ZM795.334 802.104C796.851 803.375 797.961 805.063 798.523 806.954C799.085 808.846 799.074 810.856 798.492 812.73C797.91 814.605 796.783 816.259 795.252 817.485C793.722 818.711 791.857 819.452 789.895 819.616C787.932 819.78 785.959 819.359 784.226 818.405C782.492 817.452 781.076 816.01 780.156 814.261C779.236 812.512 778.853 810.534 779.057 808.579C779.26 806.624 780.041 804.778 781.299 803.276C782.994 801.272 785.419 800.025 788.048 799.806C790.676 799.586 793.294 800.412 795.334 802.104Z" fill="#B0A79E" fill-opacity="0.05"/>
<path d="M859.463 608.13C853.834 610.346 849.299 614.672 846.842 620.168C844.385 625.663 844.205 631.886 846.342 637.483C847.875 641.445 850.515 644.885 853.954 647.4L879.03 663.623C879.279 663.924 879.616 664.139 879.996 664.239C880.375 664.339 880.777 664.319 881.146 664.181C881.492 664.01 881.786 663.75 881.997 663.427C882.208 663.105 882.328 662.733 882.344 662.35L889.963 633.57C890.834 629.4 890.493 625.077 888.979 621.107C886.757 615.541 882.429 611.071 876.916 608.647C871.403 606.224 865.141 606.038 859.463 608.13ZM871.153 638.569C869.306 639.278 867.291 639.429 865.365 639.003C863.438 638.576 861.686 637.591 860.33 636.173C858.974 634.754 858.074 632.965 857.745 631.032C857.417 629.099 857.673 627.109 858.483 625.313C859.292 623.518 860.618 621.997 862.293 620.945C863.968 619.892 865.917 619.353 867.892 619.398C869.868 619.443 871.782 620.068 873.393 621.195C875.004 622.322 876.239 623.9 876.941 625.73C877.87 628.185 877.784 630.91 876.7 633.314C875.616 635.719 873.623 637.607 871.153 638.569Z" fill="#B0A79E" fill-opacity="0.05"/>
<path d="M1091.09 816.758C1091.3 810.712 1089.13 804.831 1085.07 800.392C1081 795.953 1075.36 793.314 1069.38 793.049C1065.13 792.881 1060.92 793.936 1057.25 796.092L1032.39 812.651C1032.02 812.759 1031.69 812.984 1031.45 813.292C1031.2 813.6 1031.06 813.977 1031.04 814.37C1031.06 814.756 1031.18 815.13 1031.39 815.452C1031.61 815.773 1031.9 816.031 1032.24 816.198L1055.62 834.63C1059.1 837.088 1063.21 838.494 1067.45 838.683C1073.44 838.857 1079.26 836.662 1083.68 832.567C1088.1 828.472 1090.76 822.8 1091.09 816.758ZM1058.52 815.384C1058.6 813.407 1059.26 811.498 1060.42 809.9C1061.58 808.302 1063.18 807.086 1065.02 806.405C1066.86 805.725 1068.86 805.611 1070.76 806.078C1072.67 806.545 1074.39 807.571 1075.72 809.028C1077.04 810.484 1077.91 812.305 1078.21 814.261C1078.51 816.216 1078.23 818.218 1077.4 820.013C1076.58 821.809 1075.24 823.317 1073.57 824.346C1071.89 825.376 1069.95 825.882 1067.99 825.799C1065.37 825.676 1062.91 824.513 1061.13 822.562C1059.36 820.612 1058.42 818.032 1058.52 815.384Z" fill="#B0A79E" fill-opacity="0.05"/>
<path d="M1001.63 522.103C998.951 516.679 994.261 512.522 988.579 510.534C982.897 508.545 976.682 508.887 971.283 511.484C967.462 513.343 964.255 516.262 962.037 519.899L947.969 546.244C947.69 546.517 947.504 546.872 947.436 547.258C947.368 547.645 947.422 548.044 947.59 548.399C947.789 548.73 948.073 549.002 948.412 549.185C948.751 549.368 949.132 549.457 949.514 549.441L978.831 554.625C983.06 555.144 987.339 554.442 991.169 552.602C996.529 549.922 1000.62 545.234 1002.58 539.538C1004.53 533.842 1004.19 527.586 1001.63 522.103ZM972.276 536.299C971.415 534.518 971.096 532.523 971.359 530.567C971.623 528.612 972.458 526.783 973.759 525.313C975.059 523.843 976.766 522.797 978.665 522.308C980.564 521.818 982.568 521.908 984.425 522.564C986.282 523.22 987.908 524.415 989.098 525.996C990.287 527.577 990.986 529.473 991.107 531.446C991.228 533.418 990.765 535.378 989.776 537.078C988.788 538.777 987.319 540.14 985.554 540.993C983.186 542.124 980.463 542.266 977.976 541.387C975.49 540.508 973.441 538.679 972.276 536.299Z" fill="#B0A79E" fill-opacity="0.05"/>
<path d="M1063.67 649.842C1063.01 655.855 1064.73 661.882 1068.45 666.614C1072.18 671.346 1077.6 674.4 1083.55 675.113C1087.77 675.599 1092.04 674.863 1095.87 672.989L1121.9 658.34C1122.28 658.26 1122.62 658.061 1122.89 657.772C1123.15 657.483 1123.32 657.117 1123.37 656.727C1123.38 656.341 1123.29 655.959 1123.1 655.622C1122.92 655.286 1122.64 655.006 1122.31 654.814L1100.38 634.68C1097.09 631.969 1093.11 630.259 1088.89 629.752C1082.93 629.13 1076.96 630.881 1072.25 634.633C1067.54 638.386 1064.46 643.842 1063.67 649.842ZM1096.05 653.656C1095.82 655.621 1095.02 657.474 1093.74 658.981C1092.47 660.488 1090.78 661.581 1088.9 662.121C1087.01 662.662 1085.01 662.625 1083.14 662.017C1081.28 661.409 1079.64 660.256 1078.42 658.704C1077.21 657.152 1076.48 655.271 1076.33 653.298C1076.18 651.326 1076.61 649.351 1077.57 647.623C1078.53 645.894 1079.97 644.491 1081.72 643.59C1083.46 642.688 1085.43 642.329 1087.38 642.559C1089.99 642.878 1092.36 644.223 1093.98 646.301C1095.61 648.379 1096.35 651.022 1096.05 653.656Z" fill="#B0A79E" fill-opacity="0.05"/>
<path d="M1145.14 889.539C1151.17 889.967 1157.13 888.02 1161.71 884.121C1166.3 880.222 1169.15 874.686 1169.63 868.714C1169.96 864.478 1169.06 860.236 1167.04 856.484L1151.41 831.033C1151.32 830.654 1151.11 830.314 1150.81 830.061C1150.51 829.807 1150.14 829.652 1149.74 829.617C1149.36 829.622 1148.98 829.73 1148.65 829.93C1148.32 830.129 1148.05 830.413 1147.87 830.752L1128.59 853.433C1126 856.82 1124.45 860.867 1124.1 865.102C1123.71 871.082 1125.68 876.982 1129.61 881.546C1133.54 886.11 1139.11 888.978 1145.14 889.539ZM1147.71 857.034C1149.69 857.191 1151.57 857.923 1153.12 859.139C1154.68 860.355 1155.83 861.999 1156.45 863.864C1157.06 865.729 1157.1 867.731 1156.56 869.617C1156.02 871.502 1154.93 873.187 1153.43 874.458C1151.93 875.729 1150.07 876.529 1148.11 876.757C1146.14 876.984 1144.15 876.629 1142.39 875.737C1140.63 874.845 1139.17 873.455 1138.2 871.743C1137.23 870.032 1136.8 868.076 1136.96 866.122C1137.18 863.507 1138.43 861.085 1140.44 859.383C1142.46 857.682 1145.07 856.837 1147.71 857.034Z" fill="#B0A79E" fill-opacity="0.05"/>
<path d="M1263.71 830.901C1265.96 836.518 1270.31 841.029 1275.82 843.456C1281.33 845.882 1287.55 846.028 1293.14 843.861C1297.09 842.306 1300.52 839.647 1303.01 836.194L1319.1 811.029C1319.4 810.779 1319.61 810.44 1319.71 810.06C1319.81 809.68 1319.79 809.279 1319.65 808.911C1319.47 808.565 1319.21 808.272 1318.89 808.063C1318.56 807.854 1318.19 807.736 1317.81 807.722L1288.99 800.262C1284.81 799.413 1280.49 799.778 1276.53 801.313C1270.98 803.566 1266.53 807.919 1264.14 813.445C1261.74 818.972 1261.59 825.234 1263.71 830.901ZM1294.09 819.044C1294.81 820.887 1294.97 822.901 1294.55 824.83C1294.14 826.758 1293.16 828.516 1291.75 829.88C1290.34 831.244 1288.56 832.153 1286.63 832.493C1284.69 832.832 1282.7 832.586 1280.9 831.787C1279.1 830.987 1277.58 829.669 1276.51 828C1275.45 826.331 1274.9 824.386 1274.94 822.41C1274.97 820.434 1275.59 818.516 1276.7 816.899C1277.82 815.282 1279.39 814.039 1281.22 813.326C1283.67 812.383 1286.39 812.455 1288.8 813.526C1291.21 814.597 1293.11 816.58 1294.09 819.044Z" fill="#B0A79E" fill-opacity="0.05"/>
<path d="M1034.61 663.46C1028.87 661.573 1022.61 662.008 1017.22 664.671C1011.82 667.333 1007.71 672.009 1005.78 677.681C1004.43 681.709 1004.27 686.043 1005.31 690.174L1014.26 718.668C1014.26 719.058 1014.38 719.44 1014.61 719.759C1014.83 720.078 1015.16 720.319 1015.53 720.448C1015.9 720.537 1016.3 720.525 1016.67 720.412C1017.03 720.298 1017.36 720.088 1017.62 719.804L1041.85 702.512C1045.19 699.858 1047.68 696.312 1049.05 692.29C1050.89 686.587 1050.42 680.383 1047.72 674.998C1045.02 669.614 1040.32 665.474 1034.61 663.46ZM1024.18 694.354C1022.31 693.721 1020.66 692.551 1019.45 690.993C1018.24 689.435 1017.52 687.559 1017.38 685.601C1017.24 683.643 1017.69 681.692 1018.67 679.994C1019.65 678.296 1021.12 676.928 1022.89 676.062C1024.66 675.197 1026.65 674.873 1028.61 675.131C1030.57 675.39 1032.42 676.219 1033.91 677.515C1035.4 678.81 1036.48 680.514 1037 682.409C1037.52 684.305 1037.46 686.308 1036.84 688.165C1035.98 690.648 1034.18 692.69 1031.81 693.849C1029.44 695.008 1026.7 695.189 1024.18 694.354Z" fill="#B0A79E" fill-opacity="0.05"/>
<path d="M1185.48 620.119C1190 616.097 1192.76 610.472 1193.17 604.466C1193.58 598.46 1191.6 592.558 1187.67 588.042C1184.86 584.852 1181.19 582.534 1177.1 581.36L1147.96 574.786C1147.63 574.59 1147.24 574.504 1146.85 574.542C1146.46 574.579 1146.08 574.737 1145.79 574.993C1145.52 575.273 1145.33 575.619 1145.25 575.994C1145.16 576.369 1145.18 576.76 1145.29 577.125L1148.07 606.766C1148.69 610.981 1150.51 614.921 1153.3 618.125C1157.3 622.582 1162.91 625.284 1168.92 625.656C1174.93 626.029 1180.87 624.042 1185.48 620.119ZM1164 595.584C1165.49 594.281 1167.33 593.444 1169.29 593.179C1171.24 592.915 1173.23 593.235 1174.99 594.098C1176.75 594.962 1178.21 596.331 1179.19 598.032C1180.16 599.732 1180.61 601.689 1180.47 603.653C1180.33 605.618 1179.61 607.502 1178.4 609.068C1177.19 610.635 1175.55 611.812 1173.68 612.452C1171.81 613.092 1169.8 613.166 1167.9 612.663C1165.99 612.161 1164.29 611.106 1163 609.631C1161.28 607.648 1160.42 605.06 1160.61 602.43C1160.8 599.799 1162.02 597.339 1164 595.584Z" fill="#B0A79E" fill-opacity="0.05"/>
<path d="M1241.56 779C1239.97 773.162 1236.16 768.182 1230.97 765.14C1225.77 762.098 1219.61 761.241 1213.81 762.753C1209.71 763.845 1206 766.094 1203.12 769.238L1184.26 792.393C1183.93 792.608 1183.68 792.92 1183.54 793.286C1183.4 793.652 1183.38 794.054 1183.48 794.436C1183.61 794.799 1183.83 795.12 1184.13 795.365C1184.43 795.609 1184.78 795.769 1185.16 795.827L1212.94 806.541C1216.99 807.862 1221.33 807.995 1225.44 806.924C1231.21 805.322 1236.13 801.507 1239.14 796.292C1242.15 791.076 1243.02 784.872 1241.56 779ZM1210.02 787.298C1209.52 785.384 1209.59 783.365 1210.22 781.497C1210.86 779.628 1212.03 777.994 1213.59 776.801C1215.15 775.608 1217.02 774.909 1218.98 774.793C1220.94 774.677 1222.89 775.149 1224.58 776.15C1226.28 777.151 1227.65 778.635 1228.51 780.414C1229.37 782.194 1229.7 784.19 1229.44 786.149C1229.18 788.108 1228.35 789.943 1227.05 791.421C1225.75 792.899 1224.05 793.954 1222.15 794.453C1219.61 795.109 1216.91 794.725 1214.64 793.385C1212.37 792.045 1210.71 789.858 1210.02 787.298Z" fill="#B0A79E" fill-opacity="0.05"/>
<path d="M1386.67 744.245C1386.07 738.225 1383.14 732.684 1378.52 728.825C1373.9 724.966 1367.96 723.1 1361.99 723.633C1357.76 724.03 1353.73 725.635 1350.38 728.261L1327.94 747.977C1327.59 748.135 1327.29 748.401 1327.09 748.739C1326.89 749.077 1326.8 749.469 1326.83 749.862C1326.9 750.242 1327.07 750.596 1327.32 750.886C1327.58 751.177 1327.9 751.393 1328.27 751.513L1353.89 766.674C1357.67 768.647 1361.92 769.494 1366.15 769.118C1372.11 768.493 1377.59 765.544 1381.42 760.899C1385.25 756.253 1387.14 750.278 1386.67 744.245ZM1354.2 747.214C1354.02 745.243 1354.42 743.263 1355.35 741.525C1356.29 739.787 1357.71 738.369 1359.45 737.45C1361.18 736.531 1363.15 736.152 1365.1 736.362C1367.05 736.571 1368.89 737.359 1370.4 738.627C1371.91 739.894 1373.01 741.584 1373.57 743.482C1374.12 745.38 1374.11 747.402 1373.53 749.291C1372.95 751.18 1371.83 752.852 1370.31 754.095C1368.78 755.339 1366.93 756.098 1364.98 756.276C1362.36 756.502 1359.76 755.677 1357.74 753.98C1355.72 752.283 1354.45 749.851 1354.2 747.214Z" fill="#B0A79E" fill-opacity="0.05"/>
<path d="M1082.33 561.581C1088.32 562.419 1094.4 560.883 1099.24 557.305C1104.08 553.728 1107.3 548.398 1108.19 542.474C1108.8 538.27 1108.2 533.976 1106.44 530.095L1092.58 503.639C1092.51 503.255 1092.32 502.901 1092.04 502.628C1091.76 502.354 1091.4 502.174 1091.01 502.113C1090.63 502.091 1090.24 502.173 1089.9 502.35C1089.56 502.527 1089.27 502.792 1089.07 503.117L1068.28 524.432C1065.47 527.635 1063.64 531.568 1063.01 535.769C1062.21 541.708 1063.78 547.729 1067.39 552.55C1071 557.371 1076.36 560.611 1082.33 561.581ZM1087.12 529.328C1089.08 529.619 1090.91 530.478 1092.37 531.796C1093.84 533.115 1094.88 534.834 1095.37 536.737C1095.85 538.639 1095.75 540.639 1095.09 542.484C1094.42 544.329 1093.22 545.935 1091.63 547.101C1090.05 548.266 1088.14 548.938 1086.17 549.031C1084.19 549.125 1082.23 548.635 1080.53 547.625C1078.83 546.615 1077.47 545.129 1076.63 543.355C1075.78 541.582 1075.48 539.6 1075.77 537.662C1076.16 535.068 1077.58 532.737 1079.71 531.177C1081.83 529.616 1084.5 528.952 1087.12 529.328Z" fill="#B0A79E" fill-opacity="0.05"/>
<path d="M1296.23 534.59C1300.57 530.37 1303.08 524.628 1303.22 518.61C1303.36 512.591 1301.12 506.783 1296.99 502.447C1294.04 499.385 1290.28 497.233 1286.13 496.242L1256.74 490.972C1256.39 490.791 1256 490.723 1255.61 490.777C1255.22 490.832 1254.86 491.006 1254.57 491.276C1254.32 491.567 1254.15 491.921 1254.08 492.299C1254.01 492.678 1254.04 493.068 1254.17 493.427L1258.27 522.915C1259.08 527.098 1261.06 530.954 1263.99 534.03C1268.19 538.304 1273.91 540.754 1279.94 540.859C1285.96 540.963 1291.8 538.714 1296.23 534.59ZM1273.69 511.035C1275.11 509.667 1276.91 508.749 1278.86 508.397C1280.8 508.046 1282.79 508.277 1284.59 509.062C1286.39 509.846 1287.91 511.148 1288.96 512.804C1290.01 514.46 1290.55 516.394 1290.49 518.363C1290.44 520.332 1289.81 522.247 1288.67 523.865C1287.53 525.484 1285.94 526.733 1284.1 527.456C1282.26 528.178 1280.26 528.341 1278.33 527.924C1276.41 527.507 1274.66 526.529 1273.31 525.113C1271.5 523.208 1270.53 520.661 1270.6 518.025C1270.67 515.388 1271.78 512.877 1273.69 511.035Z" fill="#B0A79E" fill-opacity="0.05"/>
<path d="M1265.1 646.752C1269.57 642.671 1272.26 637.01 1272.59 631C1272.92 624.989 1270.86 619.113 1266.87 614.649C1264.02 611.496 1260.33 609.226 1256.21 608.106L1227 601.913C1226.66 601.721 1226.27 601.641 1225.88 601.683C1225.49 601.725 1225.12 601.888 1224.82 602.149C1224.56 602.432 1224.38 602.78 1224.3 603.156C1224.21 603.533 1224.24 603.923 1224.36 604.286L1227.52 633.889C1228.2 638.095 1230.06 642.011 1232.9 645.178C1236.96 649.582 1242.6 652.211 1248.62 652.505C1254.63 652.799 1260.55 650.735 1265.1 646.752ZM1243.31 622.5C1244.78 621.177 1246.61 620.316 1248.56 620.026C1250.51 619.736 1252.5 620.03 1254.27 620.87C1256.05 621.711 1257.52 623.06 1258.52 624.748C1259.52 626.436 1259.99 628.387 1259.88 630.353C1259.76 632.319 1259.07 634.213 1257.88 635.795C1256.69 637.376 1255.06 638.575 1253.2 639.24C1251.34 639.904 1249.33 640.004 1247.42 639.527C1245.52 639.049 1243.8 638.017 1242.49 636.559C1240.74 634.598 1239.85 632.022 1240 629.389C1240.16 626.756 1241.34 624.28 1243.31 622.5Z" fill="#B0A79E" fill-opacity="0.05"/>
<path d="M1411.48 604.942C1415.51 600.432 1417.62 594.528 1417.34 588.515C1417.07 582.501 1414.43 576.863 1410 572.824C1406.85 569.975 1402.95 568.09 1398.74 567.39L1369.05 564.177C1368.69 564.02 1368.3 563.98 1367.91 564.061C1367.53 564.142 1367.18 564.342 1366.91 564.631C1366.68 564.939 1366.53 565.304 1366.49 565.686C1366.44 566.069 1366.5 566.455 1366.66 566.804L1372.8 595.936C1373.9 600.053 1376.15 603.761 1379.28 606.626C1383.77 610.597 1389.65 612.644 1395.66 612.329C1401.68 612.015 1407.35 609.364 1411.48 604.942ZM1387.35 583.013C1388.68 581.548 1390.42 580.507 1392.33 580.022C1394.24 579.536 1396.25 579.628 1398.1 580.285C1399.95 580.943 1401.56 582.136 1402.72 583.715C1403.88 585.293 1404.55 587.186 1404.63 589.154C1404.72 591.122 1404.22 593.076 1403.19 594.77C1402.17 596.463 1400.67 597.82 1398.89 598.669C1397.1 599.518 1395.11 599.82 1393.17 599.537C1391.22 599.255 1389.41 598.401 1387.96 597.083C1386.02 595.308 1384.88 592.835 1384.76 590.2C1384.65 587.565 1385.58 584.982 1387.35 583.013Z" fill="#B0A79E" fill-opacity="0.05"/>
<path d="M927.997 441.117C933.599 438.835 938.083 434.455 940.474 428.931C942.865 423.406 942.971 417.182 940.768 411.611C939.188 407.667 936.507 404.259 933.038 401.784L907.772 385.86C907.519 385.563 907.179 385.352 906.799 385.256C906.418 385.161 906.016 385.186 905.649 385.328C905.305 385.503 905.014 385.767 904.807 386.092C904.599 386.416 904.484 386.79 904.472 387.173L897.197 416.041C896.375 420.222 896.767 424.541 898.328 428.492C900.617 434.031 904.998 438.45 910.539 440.808C916.08 443.166 922.344 443.277 927.997 441.117ZM915.945 410.82C917.784 410.088 919.797 409.913 921.728 410.317C923.66 410.72 925.424 411.684 926.797 413.087C928.17 414.49 929.09 416.268 929.442 418.197C929.794 420.126 929.561 422.119 928.773 423.924C927.985 425.729 926.677 427.265 925.014 428.337C923.352 429.41 921.41 429.971 919.434 429.95C917.458 429.929 915.536 429.327 913.912 428.219C912.288 427.111 911.035 425.547 910.31 423.726C909.352 421.283 909.407 418.557 910.462 416.14C911.517 413.723 913.488 411.811 915.945 410.82Z" fill="#B0A79E" fill-opacity="0.05"/>
<path d="M948.235 243.619C945.754 238.102 941.218 233.777 935.612 231.584C930.006 229.391 923.782 229.507 918.293 231.906C914.407 233.626 911.097 236.427 908.748 239.981L893.733 265.799C893.445 266.062 893.246 266.409 893.164 266.793C893.082 267.176 893.122 267.577 893.277 267.939C893.464 268.277 893.738 268.558 894.07 268.754C894.402 268.949 894.779 269.051 895.162 269.049L924.272 275.293C928.479 275.965 932.781 275.419 936.675 273.719C942.128 271.234 946.388 266.699 948.547 261.077C950.706 255.455 950.594 249.191 948.235 243.619ZM918.386 256.742C917.589 254.93 917.343 252.925 917.677 250.98C918.012 249.036 918.913 247.239 920.265 245.817C921.618 244.395 923.362 243.411 925.278 242.991C927.193 242.571 929.193 242.733 931.025 243.456C932.857 244.179 934.438 245.432 935.569 247.055C936.701 248.678 937.331 250.599 937.38 252.574C937.429 254.55 936.895 256.492 935.846 258.154C934.797 259.817 933.279 261.125 931.485 261.914C929.077 262.958 926.351 263.001 923.898 262.032C921.445 261.064 919.464 259.162 918.386 256.742Z" fill="#B0A79E" fill-opacity="0.05"/>
<path d="M730.778 293.346C736.735 292.291 742.038 288.951 745.536 284.052C749.034 279.152 750.445 273.089 749.461 267.18C748.745 262.992 746.839 259.097 743.967 255.949L722.608 235.074C722.424 234.73 722.135 234.452 721.783 234.279C721.431 234.106 721.033 234.046 720.645 234.109C720.271 234.207 719.931 234.404 719.66 234.678C719.39 234.952 719.198 235.293 719.107 235.665L705.931 262.361C704.249 266.276 703.726 270.581 704.422 274.773C705.496 280.668 708.852 285.908 713.775 289.378C718.697 292.847 724.798 294.271 730.778 293.346ZM725.358 261.194C727.309 260.865 729.314 261.116 731.117 261.916C732.921 262.717 734.443 264.029 735.491 265.689C736.539 267.349 737.065 269.281 737.004 271.24C736.943 273.2 736.297 275.1 735.147 276.699C733.998 278.298 732.396 279.525 730.546 280.225C728.695 280.925 726.679 281.066 724.751 280.63C722.823 280.194 721.071 279.202 719.716 277.778C718.361 276.353 717.464 274.562 717.138 272.629C716.714 270.039 717.34 267.385 718.879 265.243C720.419 263.102 722.747 261.647 725.358 261.194Z" fill="#B0A79E" fill-opacity="0.05"/>
<path d="M792.38 89.2951C791.548 83.3033 788.409 77.8789 783.644 74.2001C778.879 70.5213 772.873 68.8852 766.931 69.6471C762.719 70.2066 758.755 71.9653 755.502 74.7175L733.844 95.2815C733.493 95.4527 733.205 95.7303 733.018 96.0756C732.832 96.4208 732.758 96.8165 732.805 97.2072C732.89 97.5841 733.074 97.9313 733.337 98.2121C733.601 98.4928 733.934 98.6967 734.303 98.8023L760.488 112.967C764.338 114.794 768.62 115.477 772.834 114.938C778.766 114.085 784.128 110.928 787.779 106.138C791.429 101.349 793.08 95.3057 792.38 89.2951ZM760.047 93.5097C759.792 91.5472 760.118 89.5536 760.985 87.7812C761.852 86.0087 763.221 84.5368 764.919 83.5518C766.616 82.5667 768.567 82.1126 770.523 82.247C772.479 82.3814 774.353 83.0982 775.908 84.3068C777.463 85.5153 778.63 87.1613 779.26 89.0367C779.89 90.912 779.955 92.9325 779.448 94.8425C778.94 96.7526 777.883 98.4664 776.409 99.7674C774.935 101.068 773.111 101.898 771.167 102.151C768.563 102.478 765.935 101.753 763.852 100.135C761.77 98.5168 760.402 96.1358 760.047 93.5097Z" fill="#B0A79E" fill-opacity="0.05"/>
<path d="M823.531 60.0952C829.579 59.999 835.346 57.5433 839.577 53.2615C843.809 48.9797 846.164 43.2177 846.131 37.227C846.089 32.9785 844.826 28.83 842.49 25.2665L824.716 1.26522C824.589 0.896386 824.348 0.576166 824.028 0.349322C823.708 0.122478 823.324 0.000343008 822.931 0C822.546 0.0380857 822.179 0.178226 821.869 0.405637C821.558 0.633048 821.315 0.939304 821.165 1.29208L803.918 25.5584C801.636 29.1568 800.436 33.3239 800.458 37.5726C800.583 43.5641 803.064 49.2706 807.373 53.4772C811.682 57.6837 817.48 60.0583 823.531 60.0952ZM823.284 27.4898C825.263 27.4748 827.202 28.0414 828.856 29.1178C830.51 30.1942 831.804 31.7321 832.575 33.5371C833.346 35.3421 833.559 37.3331 833.188 39.2583C832.816 41.1835 831.876 42.9564 830.488 44.3528C829.099 45.7493 827.323 46.7066 825.385 47.1036C823.447 47.5007 821.433 47.3196 819.599 46.5835C817.765 45.8473 816.193 44.589 815.081 42.9677C813.969 41.3464 813.368 39.4349 813.353 37.475C813.346 34.8506 814.385 32.3294 816.245 30.4596C818.105 28.5897 820.634 27.5224 823.284 27.4898Z" fill="#B0A79E" fill-opacity="0.05"/>
<path d="M814.018 384.107C818.438 379.978 821.067 374.288 821.332 368.274C821.597 362.26 819.478 356.407 815.434 351.987C812.552 348.865 808.832 346.636 804.71 345.561L775.427 339.688C775.085 339.5 774.692 339.423 774.302 339.47C773.913 339.516 773.546 339.683 773.254 339.947C772.995 340.233 772.817 340.583 772.739 340.96C772.661 341.338 772.686 341.728 772.812 342.09L776.303 371.656C777.025 375.855 778.931 379.75 781.798 382.886C785.91 387.245 791.578 389.812 797.596 390.04C803.614 390.268 809.506 388.14 814.018 384.107ZM791.959 360.095C793.417 358.756 795.235 357.875 797.183 357.564C799.132 357.253 801.123 357.525 802.906 358.346C804.689 359.167 806.183 360.5 807.199 362.177C808.215 363.854 808.708 365.799 808.615 367.766C808.522 369.734 807.847 371.635 806.676 373.23C805.506 374.825 803.891 376.041 802.037 376.726C800.183 377.41 798.173 377.532 796.261 377.076C794.349 376.619 792.62 375.605 791.294 374.162C789.528 372.221 788.607 369.654 788.732 367.02C788.857 364.385 790.016 361.897 791.959 360.095Z" fill="#B0A79E" fill-opacity="0.05"/>
<path d="M900.329 195.149C900.492 189.102 898.285 183.236 894.188 178.825C890.091 174.415 884.435 171.815 878.448 171.592C874.201 171.453 870.003 172.538 866.343 174.719L841.604 191.451C841.23 191.562 840.9 191.789 840.659 192.099C840.419 192.409 840.28 192.787 840.263 193.18C840.285 193.566 840.409 193.938 840.623 194.259C840.837 194.579 841.133 194.835 841.479 194.999L864.986 213.268C868.483 215.701 872.595 217.079 876.841 217.238C882.832 217.37 888.64 215.135 893.027 211.009C897.414 206.884 900.034 201.193 900.329 195.149ZM867.743 194.002C867.813 192.024 868.462 190.111 869.608 188.505C870.754 186.899 872.346 185.672 874.182 184.978C876.018 184.285 878.017 184.157 879.924 184.611C881.832 185.064 883.563 186.079 884.899 187.526C886.234 188.973 887.115 190.788 887.429 192.742C887.743 194.695 887.476 196.699 886.662 198.5C885.848 200.301 884.524 201.818 882.856 202.859C881.189 203.901 879.253 204.42 877.295 204.351C874.672 204.246 872.198 203.1 870.409 201.162C868.621 199.224 867.662 196.651 867.743 194.002Z" fill="#B0A79E" fill-opacity="0.05"/>
<path d="M1088.49 361.276C1085.99 355.77 1081.43 351.466 1075.81 349.299C1070.2 347.132 1063.98 347.276 1058.5 349.701C1054.62 351.439 1051.32 354.255 1048.99 357.82L1034.09 383.707C1033.81 383.971 1033.61 384.319 1033.53 384.703C1033.45 385.087 1033.49 385.488 1033.65 385.849C1033.84 386.186 1034.11 386.466 1034.45 386.66C1034.78 386.854 1035.16 386.955 1035.54 386.951L1064.68 393.06C1068.89 393.712 1073.19 393.147 1077.07 391.428C1082.51 388.919 1086.75 384.363 1088.89 378.732C1091.02 373.1 1090.88 366.837 1088.49 361.276ZM1058.71 374.536C1057.9 372.728 1057.64 370.724 1057.97 368.778C1058.3 366.832 1059.19 365.031 1060.53 363.602C1061.88 362.174 1063.62 361.183 1065.53 360.754C1067.45 360.325 1069.45 360.477 1071.28 361.192C1073.12 361.907 1074.71 363.152 1075.84 364.77C1076.98 366.387 1077.62 368.305 1077.68 370.281C1077.74 372.256 1077.21 374.201 1076.17 375.868C1075.13 377.535 1073.62 378.85 1071.83 379.647C1069.43 380.703 1066.7 380.758 1064.24 379.801C1061.78 378.844 1059.79 376.952 1058.71 374.536Z" fill="#B0A79E" fill-opacity="0.05"/>
<path d="M946.964 105.026C949.371 110.576 953.849 114.962 959.425 117.229C965.002 119.497 971.226 119.465 976.747 117.139C980.655 115.472 984.003 112.716 986.399 109.193L1001.76 83.5783C1002.05 83.3195 1002.25 82.9747 1002.34 82.5922C1002.43 82.2096 1002.39 81.8085 1002.24 81.4448C1002.06 81.1043 1001.79 80.8191 1001.46 80.6192C1001.13 80.4193 1000.76 80.3121 1000.37 80.3091L971.35 73.6765C967.152 72.9479 962.843 73.4363 958.927 75.0843C953.44 77.4953 949.12 81.9737 946.886 87.566C944.652 93.1583 944.68 99.423 946.964 105.026ZM976.987 92.3047C977.759 94.127 977.979 96.135 977.618 98.075C977.257 100.015 976.333 101.8 974.961 103.204C973.589 104.607 971.832 105.567 969.911 105.962C967.991 106.356 965.993 106.168 964.171 105.42C962.349 104.672 960.784 103.399 959.675 101.761C958.565 100.123 957.961 98.1936 957.938 96.2174C957.916 94.2412 958.475 92.3067 959.547 90.6585C960.618 89.0103 962.153 87.7224 963.958 86.9577C966.379 85.9455 969.106 85.9394 971.546 86.9407C973.986 87.942 975.941 89.8697 976.987 92.3047Z" fill="#B0A79E" fill-opacity="0.05"/>
<path d="M1123.41 208.237C1122.76 202.223 1119.79 196.707 1115.13 192.887C1110.48 189.067 1104.53 187.252 1098.56 187.835C1094.34 188.268 1090.32 189.907 1086.99 192.561L1064.72 212.467C1064.37 212.628 1064.07 212.897 1063.88 213.236C1063.68 213.576 1063.59 213.969 1063.63 214.361C1063.7 214.74 1063.88 215.093 1064.13 215.381C1064.39 215.67 1064.71 215.884 1065.08 216L1090.83 230.943C1094.62 232.884 1098.88 233.695 1103.11 233.283C1109.06 232.608 1114.52 229.613 1118.31 224.935C1122.1 220.257 1123.93 214.265 1123.41 208.237ZM1090.97 211.481C1090.77 209.512 1091.16 207.529 1092.08 205.783C1093 204.037 1094.41 202.607 1096.14 201.673C1097.86 200.74 1099.83 200.344 1101.78 200.537C1103.73 200.73 1105.58 201.503 1107.1 202.757C1108.62 204.012 1109.73 205.692 1110.31 207.585C1110.88 209.479 1110.89 211.5 1110.32 213.394C1109.76 215.288 1108.65 216.97 1107.14 218.226C1105.62 219.482 1103.78 220.257 1101.83 220.452C1099.21 220.7 1096.61 219.897 1094.57 218.217C1092.54 216.537 1091.25 214.116 1090.97 211.481Z" fill="#B0A79E" fill-opacity="0.05"/>
<path d="M1143.62 447.382C1149.62 448.115 1155.67 446.472 1160.45 442.811C1165.23 439.149 1168.35 433.764 1169.14 427.826C1169.68 423.611 1169 419.329 1167.17 415.479L1152.85 389.269C1152.78 388.886 1152.58 388.536 1152.3 388.267C1152.01 387.999 1151.65 387.825 1151.26 387.771C1150.87 387.756 1150.49 387.844 1150.15 388.027C1149.81 388.21 1149.53 388.48 1149.33 388.809L1128.92 410.483C1126.17 413.735 1124.41 417.698 1123.85 421.91C1123.15 427.862 1124.83 433.854 1128.52 438.612C1132.21 443.369 1137.63 446.516 1143.62 447.382ZM1147.84 415.05C1149.81 415.306 1151.65 416.133 1153.14 417.426C1154.63 418.719 1155.7 420.419 1156.22 422.313C1156.73 424.207 1156.67 426.208 1156.04 428.064C1155.41 429.92 1154.24 431.548 1152.67 432.741C1151.1 433.934 1149.21 434.639 1147.24 434.766C1145.26 434.894 1143.29 434.439 1141.58 433.458C1139.86 432.478 1138.48 431.016 1137.6 429.258C1136.72 427.499 1136.38 425.523 1136.64 423.58C1136.99 420.979 1138.37 418.624 1140.46 417.027C1142.56 415.43 1145.21 414.719 1147.84 415.05Z" fill="#B0A79E" fill-opacity="0.05"/>
<path d="M1295.52 348.109C1289.52 347.373 1283.47 349.013 1278.69 352.672C1273.91 356.332 1270.79 361.715 1270 367.653C1269.45 371.867 1270.13 376.15 1271.96 380.001L1286.26 406.218C1286.34 406.601 1286.53 406.951 1286.82 407.22C1287.1 407.488 1287.47 407.662 1287.86 407.716C1288.24 407.732 1288.63 407.643 1288.97 407.461C1289.3 407.278 1289.59 407.008 1289.78 406.679L1310.2 385.014C1312.96 381.764 1314.72 377.801 1315.28 373.59C1315.98 367.638 1314.31 361.645 1310.62 356.886C1306.93 352.127 1301.51 348.978 1295.52 348.109ZM1291.29 380.439C1289.32 380.182 1287.48 379.354 1285.99 378.061C1284.5 376.767 1283.43 375.066 1282.92 373.172C1282.4 371.278 1282.46 369.277 1283.1 367.421C1283.73 365.565 1284.9 363.938 1286.47 362.746C1288.04 361.554 1289.93 360.85 1291.9 360.723C1293.88 360.596 1295.85 361.052 1297.56 362.033C1299.28 363.015 1300.66 364.477 1301.54 366.236C1302.42 367.995 1302.75 369.971 1302.5 371.914C1302.14 374.514 1300.77 376.869 1298.67 378.465C1296.57 380.062 1293.92 380.771 1291.29 380.439Z" fill="#B0A79E" fill-opacity="0.05"/>
<path d="M1012.68 222.572C1007.18 225.099 1002.9 229.672 1000.75 235.296C998.606 240.921 998.774 247.144 1001.22 252.612C1002.97 256.483 1005.8 259.77 1009.38 262.089L1035.32 276.883C1035.59 277.17 1035.93 277.366 1036.32 277.444C1036.7 277.523 1037.1 277.48 1037.46 277.321C1037.8 277.132 1038.08 276.855 1038.27 276.522C1038.46 276.188 1038.56 275.81 1038.56 275.427L1044.55 246.266C1045.19 242.053 1044.61 237.756 1042.88 233.877C1040.34 228.444 1035.77 224.223 1030.13 222.112C1024.49 220 1018.23 220.165 1012.68 222.572ZM1026.05 252.309C1024.25 253.12 1022.25 253.384 1020.3 253.066C1018.35 252.748 1016.55 251.862 1015.11 250.522C1013.68 249.181 1012.68 247.445 1012.25 245.534C1011.81 243.622 1011.95 241.621 1012.66 239.783C1013.37 237.945 1014.61 236.353 1016.22 235.208C1017.84 234.063 1019.75 233.416 1021.73 233.35C1023.7 233.284 1025.65 233.802 1027.32 234.837C1028.99 235.872 1030.31 237.379 1031.11 239.166C1032.18 241.565 1032.25 244.291 1031.3 246.752C1030.35 249.213 1028.47 251.21 1026.05 252.309Z" fill="#B0A79E" fill-opacity="0.05"/>
<path d="M1170.88 185.138C1176.83 184.047 1182.11 180.675 1185.58 175.755C1189.05 170.834 1190.42 164.763 1189.4 158.859C1188.66 154.676 1186.73 150.792 1183.84 147.662L1162.35 126.917C1162.17 126.574 1161.88 126.298 1161.52 126.127C1161.17 125.956 1160.77 125.899 1160.38 125.963C1160.01 126.064 1159.67 126.263 1159.4 126.538C1159.13 126.814 1158.95 127.156 1158.86 127.528L1145.84 154.304C1144.18 158.23 1143.69 162.537 1144.41 166.724C1145.52 172.614 1148.91 177.833 1153.85 181.273C1158.79 184.712 1164.9 186.099 1170.88 185.138ZM1165.26 153.019C1167.21 152.678 1169.22 152.918 1171.03 153.707C1172.83 154.496 1174.36 155.8 1175.42 157.453C1176.48 159.107 1177.02 161.035 1176.97 162.995C1176.92 164.955 1176.28 166.859 1175.14 168.465C1174 170.071 1172.41 171.308 1170.56 172.019C1168.72 172.73 1166.7 172.883 1164.77 172.459C1162.84 172.035 1161.08 171.053 1159.72 169.637C1158.36 168.221 1157.45 166.435 1157.11 164.504C1156.67 161.917 1157.28 159.259 1158.81 157.108C1160.33 154.957 1162.65 153.488 1165.26 153.019Z" fill="#B0A79E" fill-opacity="0.05"/>
<path d="M1184.51 355.61C1186.74 361.233 1191.08 365.758 1196.58 368.202C1202.08 370.645 1208.3 370.81 1213.9 368.66C1217.86 367.117 1221.29 364.469 1223.8 361.023L1239.96 335.909C1240.26 335.659 1240.47 335.321 1240.57 334.941C1240.67 334.562 1240.65 334.16 1240.51 333.792C1240.34 333.445 1240.08 333.152 1239.76 332.941C1239.43 332.731 1239.06 332.612 1238.68 332.597L1209.88 325.048C1205.71 324.187 1201.38 324.539 1197.42 326.062C1191.86 328.298 1187.4 332.637 1184.99 338.156C1182.58 343.674 1182.41 349.937 1184.51 355.61ZM1214.92 343.846C1215.64 345.692 1215.79 347.706 1215.37 349.633C1214.95 351.561 1213.97 353.315 1212.55 354.675C1211.14 356.035 1209.35 356.938 1207.42 357.272C1205.49 357.605 1203.5 357.353 1201.7 356.548C1199.9 355.743 1198.38 354.421 1197.32 352.748C1196.26 351.076 1195.72 349.129 1195.76 347.153C1195.8 345.177 1196.42 343.261 1197.54 341.648C1198.67 340.034 1200.24 338.796 1202.07 338.089C1204.52 337.154 1207.25 337.234 1209.65 338.312C1212.06 339.39 1213.95 341.379 1214.92 343.846Z" fill="#B0A79E" fill-opacity="0.05"/>
<path d="M1363.06 334.423C1368.97 333.116 1374.12 329.554 1377.41 324.511C1380.7 319.467 1381.85 313.35 1380.62 307.488C1379.72 303.334 1377.65 299.523 1374.65 296.5L1352.43 276.549C1352.23 276.214 1351.93 275.948 1351.57 275.79C1351.21 275.632 1350.81 275.589 1350.42 275.668C1350.05 275.782 1349.72 275.993 1349.46 276.278C1349.2 276.563 1349.03 276.912 1348.95 277.288L1336.92 304.519C1335.41 308.502 1335.07 312.825 1335.94 316.983C1337.26 322.828 1340.84 327.921 1345.9 331.178C1350.97 334.435 1357.12 335.599 1363.06 334.423ZM1356.28 302.529C1358.22 302.117 1360.23 302.283 1362.07 303.006C1363.9 303.729 1365.48 304.977 1366.59 306.59C1367.71 308.204 1368.32 310.112 1368.34 312.073C1368.36 314.033 1367.8 315.958 1366.72 317.605C1365.64 319.252 1364.09 320.545 1362.27 321.323C1360.45 322.101 1358.44 322.327 1356.5 321.973C1354.55 321.62 1352.76 320.702 1351.35 319.337C1349.93 317.971 1348.96 316.219 1348.55 314.302C1348.02 311.732 1348.53 309.054 1349.98 306.849C1351.43 304.645 1353.69 303.092 1356.28 302.529Z" fill="#B0A79E" fill-opacity="0.05"/>
<path d="M1072.32 63.4531C1067.02 66.3774 1063.08 71.2525 1061.36 77.0196C1059.63 82.7867 1060.26 88.98 1063.1 94.2543C1065.13 97.9856 1068.19 101.056 1071.93 103.106L1098.89 115.955C1099.17 116.221 1099.53 116.391 1099.92 116.441C1100.31 116.491 1100.71 116.418 1101.06 116.234C1101.38 116.02 1101.64 115.724 1101.8 115.377C1101.97 115.031 1102.04 114.646 1102.01 114.264L1105.85 84.7414C1106.17 80.4931 1105.28 76.2503 1103.26 72.5091C1100.34 67.2772 1095.47 63.4032 1089.69 61.7118C1083.91 60.0204 1077.68 60.6452 1072.32 63.4531ZM1087.84 92.127C1086.1 93.0693 1084.12 93.4792 1082.16 93.3051C1080.19 93.1309 1078.33 92.3805 1076.8 91.1487C1075.27 89.9169 1074.15 88.259 1073.57 86.3847C1073 84.5104 1072.99 82.5039 1073.56 80.6189C1074.14 78.7338 1075.25 77.055 1076.78 75.7946C1078.3 74.5342 1080.17 73.7489 1082.13 73.538C1084.1 73.3271 1086.08 73.7001 1087.82 74.6097C1089.56 75.5194 1090.99 76.9248 1091.92 78.6484C1093.16 80.9623 1093.43 83.6764 1092.66 86.2004C1091.9 88.7244 1090.16 90.8543 1087.84 92.127Z" fill="#B0A79E" fill-opacity="0.05"/>
<path d="M1291.96 96.0021C1296.99 92.6377 1300.5 87.445 1301.73 81.5519C1302.96 75.6588 1301.81 69.5412 1298.53 64.5279C1296.19 60.9831 1292.88 58.1847 1288.98 56.4601L1261.02 45.9524C1260.72 45.7117 1260.34 45.5733 1259.95 45.5566C1259.56 45.5398 1259.17 45.6455 1258.84 45.8589C1258.53 46.0995 1258.3 46.4164 1258.16 46.7761C1258.03 47.1358 1257.99 47.5249 1258.06 47.9025L1256.74 77.6449C1256.78 81.9054 1258.04 86.0565 1260.36 89.6128C1263.72 94.5769 1268.9 98.0224 1274.8 99.2157C1280.7 100.409 1286.86 99.256 1291.96 96.0021ZM1274.06 68.7534C1275.71 67.6665 1277.65 67.0897 1279.62 67.0959C1281.59 67.1021 1283.51 67.6911 1285.14 68.7884C1286.77 69.8857 1288.03 71.442 1288.76 73.2605C1289.5 75.079 1289.67 77.078 1289.26 79.0048C1288.85 80.9315 1287.88 82.6995 1286.47 84.0851C1285.06 85.4707 1283.27 86.4116 1281.33 86.789C1279.39 87.1664 1277.38 86.9633 1275.57 86.2053C1273.76 85.4473 1272.21 84.1684 1271.14 82.5305C1269.71 80.3304 1269.21 77.6489 1269.76 75.0689C1270.3 72.489 1271.85 70.2193 1274.06 68.7534Z" fill="#B0A79E" fill-opacity="0.05"/>
<path d="M1226.19 158.982C1221.49 162.791 1218.47 168.282 1217.79 174.263C1217.1 180.244 1218.8 186.231 1222.53 190.924C1225.18 194.24 1228.74 196.725 1232.77 198.087L1261.57 206.001C1261.9 206.212 1262.29 206.316 1262.68 206.297C1263.07 206.278 1263.45 206.137 1263.76 205.894C1264.04 205.627 1264.24 205.29 1264.34 204.92C1264.45 204.549 1264.45 204.158 1264.35 203.788L1262.94 174.05C1262.51 169.811 1260.89 165.791 1258.25 162.462C1254.45 157.825 1248.98 154.866 1242.99 154.216C1237 153.566 1230.98 155.276 1226.19 158.982ZM1246.51 184.484C1244.96 185.717 1243.09 186.468 1241.12 186.642C1239.16 186.815 1237.19 186.404 1235.47 185.46C1233.75 184.516 1232.35 183.081 1231.46 181.337C1230.56 179.593 1230.2 177.618 1230.44 175.662C1230.67 173.706 1231.47 171.857 1232.75 170.348C1234.03 168.84 1235.73 167.739 1237.63 167.186C1239.52 166.634 1241.54 166.653 1243.41 167.243C1245.29 167.832 1246.94 168.965 1248.16 170.498C1249.79 172.558 1250.53 175.183 1250.22 177.802C1249.91 180.421 1248.58 182.822 1246.51 184.484Z" fill="#B0A79E" fill-opacity="0.05"/>
<path d="M1404.3 116.798C1399.05 113.791 1392.84 112.957 1387.01 114.476C1381.19 115.996 1376.22 119.746 1373.19 124.913C1371.06 128.587 1370.02 132.799 1370.21 137.056L1373.23 166.768C1373.15 167.151 1373.19 167.549 1373.35 167.907C1373.51 168.266 1373.78 168.567 1374.12 168.768C1374.47 168.932 1374.86 168.999 1375.24 168.962C1375.62 168.925 1375.99 168.786 1376.3 168.559L1403.52 156.507C1407.32 154.579 1410.48 151.61 1412.63 147.946C1415.58 142.732 1416.37 136.558 1414.81 130.741C1413.25 124.923 1409.48 119.92 1404.3 116.798ZM1387.86 144.955C1386.15 143.957 1384.77 142.479 1383.9 140.709C1383.03 138.939 1382.7 136.956 1382.96 135.01C1383.22 133.064 1384.05 131.244 1385.35 129.779C1386.66 128.313 1388.37 127.269 1390.28 126.778C1392.19 126.287 1394.2 126.371 1396.07 127.02C1397.94 127.668 1399.58 128.852 1400.78 130.422C1401.98 131.992 1402.69 133.877 1402.82 135.839C1402.94 137.8 1402.48 139.751 1401.5 141.443C1400.16 143.703 1397.98 145.34 1395.43 145.997C1392.87 146.655 1390.15 146.28 1387.86 144.955Z" fill="#B0A79E" fill-opacity="0.05"/>
<path d="M166.365 403.595C164.463 409.338 164.881 415.591 167.53 420.997C170.178 426.403 174.842 430.526 180.51 432.468C184.535 433.828 188.868 434.002 193.002 432.971L221.519 424.098C221.909 424.099 222.291 423.978 222.611 423.75C222.93 423.523 223.172 423.201 223.302 422.829C223.393 422.454 223.381 422.061 223.269 421.693C223.157 421.325 222.948 420.994 222.664 420.737L205.435 396.457C202.789 393.117 199.25 390.611 195.232 389.232C189.534 387.375 183.329 387.838 177.937 390.52C172.545 393.203 168.393 397.894 166.365 403.595ZM197.231 414.105C196.593 415.979 195.419 417.623 193.858 418.83C192.297 420.036 190.418 420.752 188.46 420.885C186.502 421.018 184.552 420.563 182.856 419.578C181.161 418.593 179.797 417.122 178.936 415.35C178.075 413.579 177.756 411.587 178.02 409.626C178.284 407.666 179.118 405.824 180.417 404.335C181.717 402.846 183.423 401.776 185.32 401.261C187.217 400.745 189.22 400.807 191.075 401.439C193.555 402.297 195.593 404.109 196.746 406.481C197.899 408.853 198.073 411.593 197.231 414.105Z" fill="#B0A79E" fill-opacity="0.05"/>
<path d="M215.922 280.433C220.865 276.946 224.245 271.669 225.329 265.747C226.413 259.826 225.113 253.738 221.711 248.807C219.283 245.321 215.902 242.605 211.965 240.976L183.758 231.159C183.446 230.926 183.066 230.797 182.674 230.79C182.282 230.783 181.896 230.898 181.571 231.119C181.275 231.367 181.05 231.69 180.922 232.053C180.793 232.416 180.765 232.806 180.84 233.182L180.26 262.947C180.403 267.206 181.759 271.325 184.17 274.823C187.648 279.703 192.913 283.02 198.843 284.068C204.774 285.115 210.901 283.811 215.922 280.433ZM197.349 253.633C198.976 252.506 200.897 251.881 202.87 251.839C204.843 251.797 206.778 252.338 208.432 253.395C210.086 254.452 211.384 255.977 212.161 257.777C212.939 259.577 213.162 261.571 212.801 263.507C212.44 265.444 211.512 267.235 210.134 268.655C208.757 270.075 206.991 271.059 205.061 271.484C203.131 271.909 201.123 271.755 199.291 271.042C197.459 270.329 195.886 269.089 194.769 267.478C193.285 265.313 192.723 262.645 193.206 260.052C193.689 257.46 195.178 255.153 197.349 253.633Z" fill="#B0A79E" fill-opacity="0.05"/>
<path d="M11.9089 292.638C17.7188 290.953 22.6355 287.066 25.591 281.822C28.5466 276.577 29.3023 270.399 27.694 264.628C26.5348 260.54 24.2245 256.87 21.0333 254.047L-2.43088 235.57C-2.65071 235.248 -2.96694 235.002 -3.33539 234.867C-3.70384 234.733 -4.10608 234.716 -4.48588 234.819C-4.84675 234.957 -5.1639 235.189 -5.40385 235.49C-5.6438 235.791 -5.79766 236.15 -5.8492 236.53L-16.1022 264.48C-17.3563 268.552 -17.4173 272.888 -16.2782 276.981C-14.581 282.729 -10.6856 287.581 -5.42107 290.505C-0.15654 293.43 6.0613 294.195 11.9089 292.638ZM3.08972 261.247C4.99504 260.711 7.01477 260.748 8.8935 261.351C10.7722 261.954 12.4256 263.097 13.6445 264.636C14.8634 266.174 15.5931 268.039 15.7413 269.994C15.8895 271.949 15.4496 273.907 14.4772 275.619C13.5048 277.332 12.0436 278.723 10.2783 279.616C8.51299 280.509 6.52294 280.865 4.55979 280.637C2.59663 280.41 0.74855 279.609 -0.750767 278.338C-2.25008 277.066 -3.33329 275.381 -3.86341 273.494C-4.56098 270.964 -4.22187 268.258 -2.91982 265.964C-1.61777 263.671 0.54195 261.976 3.08972 261.247Z" fill="#B0A79E" fill-opacity="0.05"/>
<path d="M51.5993 65.2829C45.9568 63.1018 39.6905 63.2137 34.1611 65.5941C28.6318 67.9745 24.2861 72.4313 22.0679 77.9963C20.5127 81.9502 20.1263 86.2694 20.9537 90.449L28.4196 119.367C28.3991 119.757 28.5018 120.144 28.7132 120.474C28.9247 120.804 29.2345 121.062 29.5992 121.21C29.9698 121.319 30.3625 121.326 30.7359 121.232C31.1093 121.138 31.4495 120.945 31.7206 120.675L56.8152 104.656C60.2806 102.177 62.957 98.7652 64.5315 94.819C66.6649 89.2188 66.507 82.9983 64.0917 77.4818C61.6763 71.9653 57.1941 67.5884 51.5993 65.2829ZM39.5898 95.597C37.7498 94.8681 36.1652 93.6152 35.0364 91.9968C33.9076 90.3783 33.2853 88.467 33.2481 86.5046C33.2109 84.5422 33.7606 82.6168 34.8275 80.9718C35.8945 79.3268 37.4309 78.0362 39.2424 77.2632C41.0539 76.4901 43.0592 76.2693 45.0046 76.6288C46.95 76.9882 48.7483 77.9117 50.1719 79.2825C51.5956 80.6532 52.5807 82.4097 53.0026 84.3298C53.4246 86.2498 53.2646 88.2473 52.5427 90.0694C51.5643 92.5046 49.6547 94.4514 47.2291 95.4865C44.8035 96.5216 42.0581 96.5613 39.5898 95.597Z" fill="#B0A79E" fill-opacity="0.05"/>
<path d="M131.191 27.6296C130.666 21.603 127.809 16.0251 123.238 12.1072C118.668 8.1893 112.753 6.2479 106.78 6.70466C102.545 7.04785 98.4964 8.60131 95.1072 11.1834L72.4242 30.6119C72.0653 30.7649 71.7629 31.0274 71.5593 31.3627C71.3557 31.698 71.261 32.0893 71.2885 32.4819C71.3537 32.8627 71.5195 33.2188 71.7683 33.5127C72.0172 33.8066 72.3399 34.0273 72.7024 34.1516L98.1287 49.6381C101.88 51.6592 106.121 52.5613 110.358 52.2389C116.325 51.6904 121.842 48.8116 125.733 44.2153C129.624 39.619 131.582 33.6682 131.191 27.6296ZM98.6844 30.1836C98.5293 28.2106 98.9572 26.2364 99.9139 24.5106C100.871 22.7848 102.313 21.385 104.059 20.4881C105.805 19.5912 107.776 19.2376 109.722 19.472C111.669 19.7063 113.504 20.5181 114.995 21.8046C116.486 23.0912 117.567 24.7948 118.1 26.6999C118.634 28.605 118.596 30.6262 117.991 32.5078C117.386 34.3893 116.243 36.0468 114.704 37.2706C113.166 38.4944 111.301 39.2296 109.348 39.3831C106.73 39.576 104.142 38.7178 102.145 36.9951C100.148 35.2724 98.9045 32.8245 98.6844 30.1836Z" fill="#B0A79E" fill-opacity="0.05"/>
<path d="M49.6603 341.534C45.5633 345.984 43.3711 351.856 43.5597 357.873C43.7483 363.89 46.3025 369.567 50.6676 373.67C53.7765 376.566 57.6537 378.508 61.8458 379.27L91.4879 382.92C91.8429 383.082 92.2406 383.128 92.6255 383.053C93.0105 382.977 93.3633 382.783 93.6346 382.498C93.8719 382.193 94.0231 381.83 94.0723 381.449C94.1216 381.067 94.067 380.679 93.9144 380.328L88.2061 351.109C87.1695 346.976 84.9756 343.236 81.8809 340.325C77.452 336.288 71.6064 334.155 65.5885 334.381C59.5706 334.607 53.8557 337.173 49.6603 341.534ZM73.4649 363.817C72.1124 365.261 70.366 366.277 68.4465 366.734C66.527 367.191 64.5206 367.07 62.681 366.385C60.8415 365.701 59.2514 364.484 58.1119 362.888C56.9723 361.293 56.3345 359.39 56.2791 357.421C56.2236 355.453 56.753 353.506 57.8004 351.827C58.8477 350.149 60.3659 348.814 62.163 347.992C63.9601 347.17 65.9554 346.897 67.8965 347.208C69.8377 347.519 71.6375 348.4 73.0684 349.739C74.9756 351.542 76.0872 354.032 76.1615 356.668C76.2357 359.304 75.2666 361.873 73.4649 363.817Z" fill="#B0A79E" fill-opacity="0.05"/>
<path d="M178.334 193.325C178.129 187.279 175.57 181.558 171.213 177.404C166.856 173.25 161.053 170.999 155.064 171.139C150.817 171.258 146.692 172.595 143.171 174.995L119.492 193.197C119.126 193.331 118.81 193.577 118.589 193.901C118.368 194.225 118.253 194.611 118.259 195.004C118.304 195.388 118.451 195.752 118.684 196.059C118.917 196.366 119.228 196.603 119.583 196.746L144.155 213.555C147.794 215.772 151.982 216.897 156.23 216.799C162.218 216.567 167.879 213.983 172.007 209.599C176.136 205.215 178.406 199.376 178.334 193.325ZM145.738 194.157C145.688 192.179 146.22 190.23 147.266 188.557C148.313 186.884 149.827 185.563 151.618 184.759C153.409 183.956 155.396 183.707 157.327 184.044C159.259 184.381 161.048 185.289 162.469 186.652C163.891 188.016 164.88 189.774 165.311 191.705C165.743 193.635 165.598 195.652 164.895 197.499C164.192 199.346 162.962 200.94 161.361 202.081C159.76 203.222 157.86 203.858 155.9 203.908C153.277 203.962 150.737 202.968 148.834 201.142C146.931 199.316 145.819 196.806 145.738 194.157Z" fill="#B0A79E" fill-opacity="0.05"/>
<path d="M367.938 365.223C366.224 359.422 362.314 354.524 357.055 351.595C351.796 348.665 345.613 347.939 339.851 349.576C335.769 350.755 332.11 353.083 329.303 356.288L310.941 379.843C310.62 380.064 310.375 380.382 310.243 380.751C310.11 381.12 310.095 381.522 310.2 381.902C310.34 382.262 310.573 382.578 310.875 382.816C311.178 383.055 311.538 383.207 311.918 383.257L339.918 393.372C343.996 394.606 348.332 394.646 352.42 393.487C358.159 391.762 362.992 387.842 365.89 382.564C368.789 377.285 369.523 371.063 367.938 365.223ZM336.59 374.197C336.046 372.294 336.072 370.274 336.666 368.392C337.26 366.511 338.395 364.852 339.927 363.625C341.46 362.399 343.321 361.66 345.275 361.502C347.23 361.344 349.189 361.775 350.907 362.739C352.624 363.703 354.023 365.157 354.924 366.918C355.826 368.679 356.191 370.667 355.973 372.631C355.755 374.596 354.964 376.448 353.7 377.953C352.436 379.459 350.755 380.55 348.871 381.089C346.345 381.799 343.637 381.474 341.337 380.183C339.038 378.892 337.332 376.741 336.59 374.197Z" fill="#B0A79E" fill-opacity="0.05"/>
<path d="M233.801 116.68C238.542 120.437 244.56 122.189 250.546 121.555C256.533 120.922 262.005 117.955 265.774 113.298C268.432 109.983 270.082 105.973 270.531 101.736L271.978 71.9051C272.113 71.5391 272.13 71.139 272.026 70.7608C271.922 70.3825 271.703 70.0451 271.398 69.7955C271.077 69.5815 270.704 69.4575 270.32 69.4367C269.935 69.4158 269.553 69.4989 269.214 69.6771L240.497 77.5318C236.453 78.8714 232.885 81.3361 230.211 84.6376C226.512 89.3532 224.818 95.3406 225.488 101.325C226.159 107.31 229.141 112.819 233.801 116.68ZM254.261 91.2923C255.802 92.5342 256.943 94.2007 257.541 96.0811C258.139 97.9615 258.167 99.9714 257.62 101.857C257.074 103.742 255.978 105.417 254.471 106.672C252.964 107.926 251.114 108.703 249.155 108.904C247.195 109.105 245.215 108.721 243.464 107.801C241.712 106.881 240.269 105.465 239.316 103.734C238.363 102.003 237.943 100.033 238.11 98.0744C238.276 96.1155 239.021 94.2555 240.251 92.7294C241.908 90.694 244.309 89.4012 246.932 89.1321C249.556 88.863 252.19 89.6393 254.261 91.2923Z" fill="#B0A79E" fill-opacity="0.05"/>
<path d="M389.656 235.249C394.457 231.568 397.625 226.16 398.472 220.2C399.32 214.24 397.778 208.209 394.183 203.417C391.617 200.031 388.131 197.451 384.132 195.981L355.557 187.295C355.235 187.074 354.851 186.96 354.459 186.969C354.067 186.977 353.686 187.108 353.37 187.342C353.084 187.602 352.873 187.933 352.758 188.301C352.644 188.668 352.632 189.059 352.722 189.432L353.328 219.197C353.639 223.446 355.158 227.508 357.707 230.907C361.377 235.645 366.769 238.75 372.737 239.56C378.704 240.371 384.775 238.824 389.656 235.249ZM370.032 209.209C371.612 208.018 373.507 207.318 375.477 207.197C377.446 207.076 379.402 207.54 381.097 208.531C382.791 209.521 384.149 210.993 384.997 212.761C385.846 214.528 386.148 216.512 385.864 218.461C385.581 220.41 384.725 222.237 383.405 223.71C382.085 225.184 380.36 226.238 378.448 226.74C376.537 227.241 374.524 227.167 372.665 226.528C370.807 225.888 369.185 224.711 368.005 223.146C366.436 221.042 365.768 218.398 366.148 215.788C366.527 213.179 367.923 210.814 370.032 209.209Z" fill="#B0A79E" fill-opacity="0.05"/>
<path d="M247.027 202.647C253.07 202.912 258.972 200.804 263.451 196.781C267.93 192.759 270.625 187.148 270.949 181.166C271.159 176.922 270.145 172.706 268.026 169.01L251.713 143.992C251.608 143.617 251.387 143.283 251.081 143.037C250.775 142.792 250.399 142.647 250.006 142.623C249.62 142.638 249.245 142.756 248.922 142.965C248.598 143.173 248.337 143.465 248.167 143.808L229.505 167.004C227.013 170.46 225.567 174.548 225.336 178.791C225.103 184.779 227.24 190.623 231.292 195.079C235.343 199.535 240.988 202.25 247.027 202.647ZM248.722 170.085C250.698 170.188 252.6 170.869 254.187 172.042C255.774 173.215 256.974 174.827 257.636 176.675C258.298 178.523 258.393 180.523 257.907 182.423C257.422 184.322 256.378 186.036 254.908 187.347C253.439 188.659 251.609 189.508 249.651 189.789C247.693 190.07 245.694 189.77 243.907 188.926C242.12 188.081 240.625 186.732 239.612 185.047C238.598 183.363 238.112 181.419 238.214 179.461C238.363 176.841 239.55 174.386 241.518 172.631C243.486 170.875 246.075 169.96 248.722 170.085Z" fill="#B0A79E" fill-opacity="0.05"/>
<path d="M417.693 388.546C411.858 390.143 406.884 393.955 403.85 399.155C400.816 404.354 399.967 410.521 401.488 416.315C402.586 420.42 404.841 424.124 407.989 426.995L431.173 445.823C431.388 446.148 431.701 446.399 432.067 446.539C432.433 446.679 432.835 446.702 433.217 446.604C433.579 446.472 433.9 446.245 434.145 445.947C434.389 445.65 434.548 445.293 434.605 444.914L445.277 417.121C446.593 413.069 446.719 408.734 445.641 404.624C444.031 398.852 440.209 393.941 434.989 390.938C429.769 387.935 423.563 387.077 417.693 388.546ZM426.039 420.066C424.126 420.572 422.107 420.506 420.238 419.874C418.368 419.243 416.732 418.075 415.536 416.519C414.341 414.962 413.639 413.087 413.52 411.129C413.402 409.172 413.871 407.221 414.869 405.524C415.867 403.826 417.349 402.457 419.128 401.59C420.906 400.724 422.901 400.399 424.861 400.656C426.82 400.913 428.656 401.74 430.136 403.034C431.616 404.328 432.674 406.03 433.176 407.925C433.835 410.465 433.455 413.166 432.119 415.439C430.783 417.713 428.598 419.375 426.039 420.066Z" fill="#B0A79E" fill-opacity="0.05"/>
<path d="M542.165 365.839C539.769 371.393 539.64 377.66 541.807 383.276C543.973 388.893 548.26 393.406 553.735 395.837C557.627 397.542 561.928 398.094 566.136 397.428L595.319 391.078C595.708 391.113 596.099 391.026 596.437 390.827C596.775 390.628 597.044 390.329 597.206 389.97C597.329 389.604 597.352 389.212 597.272 388.835C597.192 388.458 597.013 388.111 596.753 387.829L581.71 362.138C579.365 358.58 576.059 355.775 572.176 354.05C566.662 351.703 560.44 351.622 554.834 353.824C549.229 356.026 544.684 360.337 542.165 365.839ZM571.996 379.003C571.197 380.814 569.884 382.349 568.223 383.415C566.563 384.481 564.629 385.029 562.667 384.991C560.704 384.953 558.801 384.33 557.198 383.201C555.596 382.071 554.365 380.486 553.662 378.647C552.959 376.807 552.815 374.795 553.249 372.864C553.683 370.934 554.675 369.173 556.099 367.803C557.524 366.433 559.317 365.516 561.252 365.168C563.187 364.82 565.176 365.056 566.969 365.848C569.365 366.919 571.237 368.902 572.179 371.365C573.12 373.829 573.054 376.574 571.996 379.003Z" fill="#B0A79E" fill-opacity="0.05"/>
<path d="M327.323 267.681C330.862 262.775 332.341 256.684 331.439 250.732C330.537 244.78 327.326 239.447 322.504 235.892C319.073 233.386 314.993 231.918 310.74 231.66L280.874 231.558C280.502 231.439 280.102 231.441 279.729 231.561C279.356 231.682 279.028 231.917 278.793 232.232C278.593 232.563 278.486 232.941 278.483 233.326C278.479 233.711 278.58 234.089 278.773 234.42L287.913 262.754C289.433 266.734 292.056 270.187 295.475 272.71C300.352 276.192 306.41 277.615 312.358 276.676C318.306 275.736 323.676 272.509 327.323 267.681ZM301.039 248.384C302.211 246.789 303.824 245.574 305.676 244.891C307.527 244.209 309.534 244.091 311.442 244.553C313.35 245.014 315.073 246.033 316.394 247.482C317.715 248.931 318.574 250.744 318.863 252.692C319.152 254.64 318.858 256.636 318.018 258.427C317.177 260.218 315.828 261.724 314.142 262.754C312.455 263.784 310.506 264.292 308.542 264.214C306.578 264.136 304.686 263.475 303.106 262.315C300.998 260.752 299.598 258.411 299.211 255.803C298.824 253.194 299.481 250.528 301.039 248.384Z" fill="#B0A79E" fill-opacity="0.05"/>
<path d="M415.532 166.179C417.707 171.824 421.999 176.391 427.477 178.887C432.955 181.384 439.176 181.609 444.788 179.513C448.761 178.009 452.22 175.394 454.761 171.973L471.165 147.016C471.468 146.769 471.686 146.433 471.788 146.055C471.891 145.676 471.873 145.274 471.738 144.904C471.57 144.556 471.312 144.26 470.991 144.047C470.671 143.833 470.299 143.711 469.917 143.692L441.193 135.865C437.028 134.963 432.703 135.273 428.722 136.758C423.141 138.94 418.639 143.236 416.175 148.731C413.712 154.226 413.481 160.486 415.532 166.179ZM446.054 154.71C446.75 156.563 446.887 158.578 446.446 160.502C446.006 162.425 445.008 164.17 443.579 165.516C442.151 166.862 440.355 167.748 438.42 168.063C436.485 168.378 434.497 168.107 432.707 167.284C430.917 166.462 429.407 165.125 428.366 163.442C427.325 161.76 426.801 159.807 426.86 157.832C426.919 155.856 427.559 153.947 428.697 152.344C429.836 150.742 431.423 149.518 433.258 148.829C435.719 147.918 438.444 148.024 440.84 149.126C443.237 150.227 445.11 152.234 446.054 154.71Z" fill="#B0A79E" fill-opacity="0.05"/>
<path d="M472.21 320.876C467.436 324.591 464.305 330.02 463.499 335.986C462.693 341.952 464.277 347.972 467.905 352.738C470.494 356.107 473.998 358.662 478.007 360.105L506.642 368.593C506.965 368.811 507.35 368.922 507.742 368.911C508.134 368.9 508.514 368.767 508.829 368.53C509.113 368.269 509.322 367.936 509.434 367.567C509.545 367.199 509.555 366.808 509.463 366.436L508.65 336.676C508.309 332.429 506.762 328.378 504.189 324.996C500.487 320.284 495.073 317.217 489.1 316.447C483.127 315.678 477.067 317.267 472.21 320.876ZM492.015 346.779C490.443 347.981 488.553 348.694 486.585 348.829C484.616 348.963 482.657 348.513 480.956 347.534C479.254 346.556 477.886 345.093 477.026 343.332C476.165 341.57 475.849 339.589 476.119 337.638C476.389 335.687 477.232 333.854 478.542 332.371C479.852 330.888 481.569 329.822 483.477 329.308C485.385 328.793 487.398 328.853 489.262 329.479C491.125 330.106 492.755 331.272 493.945 332.829C495.529 334.921 496.215 337.561 495.854 340.173C495.492 342.785 494.113 345.159 492.015 346.779Z" fill="#B0A79E" fill-opacity="0.05"/>
<path d="M651.564 280.141C646.53 276.786 640.389 275.535 634.475 276.658C628.56 277.781 623.351 281.187 619.977 286.138C617.6 289.66 616.285 293.792 616.185 298.052L617.193 327.901C617.089 328.276 617.105 328.677 617.24 329.045C617.374 329.413 617.621 329.732 617.945 329.955C618.283 330.142 618.664 330.235 619.049 330.224C619.434 330.214 619.808 330.099 620.132 329.894L648.106 319.707C652.027 318.04 655.38 315.29 657.774 311.78C661.073 306.777 662.269 300.67 661.11 294.761C659.95 288.852 656.525 283.606 651.564 280.141ZM633.259 307.124C631.621 306.012 630.346 304.445 629.596 302.62C628.845 300.795 628.653 298.795 629.043 296.871C629.432 294.947 630.387 293.187 631.786 291.813C633.185 290.439 634.965 289.513 636.901 289.152C638.837 288.79 640.842 289.01 642.663 289.784C644.484 290.557 646.039 291.849 647.131 293.496C648.223 295.143 648.803 297.072 648.798 299.038C648.793 301.004 648.203 302.919 647.103 304.541C645.619 306.705 643.332 308.191 640.74 308.674C638.147 309.158 635.459 308.601 633.259 307.124Z" fill="#B0A79E" fill-opacity="0.05"/>
<path d="M334.656 91.1097C334.948 97.1519 337.588 102.836 342.005 106.927C346.421 111.018 352.256 113.186 358.242 112.96C362.487 112.78 366.593 111.383 370.079 108.934L393.494 90.3937C393.858 90.2547 394.171 90.004 394.387 89.6768C394.603 89.3496 394.713 88.9622 394.701 88.5689C394.65 88.1858 394.498 87.8236 394.261 87.5204C394.024 87.2171 393.71 86.9841 393.352 86.8459L368.541 70.3913C364.871 68.2272 360.667 67.1623 356.422 67.3213C350.437 67.6394 344.814 70.3035 340.749 74.7465C336.684 79.1895 334.498 85.0605 334.656 91.1097ZM367.237 89.8099C367.315 91.7874 366.812 93.7437 365.789 95.4313C364.767 97.119 363.272 98.4622 361.493 99.2912C359.713 100.12 357.73 100.398 355.794 100.088C353.858 99.7792 352.056 98.8973 350.615 97.5543C349.174 96.2112 348.16 94.4672 347.701 92.543C347.241 90.6187 347.357 88.6005 348.034 86.7436C348.71 84.8868 349.917 83.2746 351.502 82.111C353.086 80.9474 354.977 80.2846 356.936 80.2065C359.559 80.1146 362.112 81.0719 364.041 82.8702C365.97 84.6686 367.118 87.1626 367.237 89.8099Z" fill="#B0A79E" fill-opacity="0.05"/>
<path d="M542.939 99.0931C548.622 101.165 554.885 100.933 560.367 98.4463C565.85 95.9599 570.109 91.4203 572.22 85.8136C573.699 81.8306 574.002 77.5047 573.094 73.3418L565.073 44.573C565.086 44.183 564.976 43.798 564.758 43.4718C564.54 43.1455 564.226 42.8943 563.858 42.7533C563.486 42.6515 563.093 42.6512 562.721 42.7525C562.35 42.8538 562.013 43.053 561.747 43.329L536.966 59.8274C533.549 62.3726 530.938 65.8355 529.44 69.8112C527.415 75.4515 527.693 81.6678 530.214 87.1368C532.735 92.6058 537.3 96.8956 542.939 99.0931ZM554.362 68.5534C556.216 69.2467 557.824 70.4689 558.984 72.0653C560.144 73.6618 560.803 75.5607 560.878 77.5221C560.953 79.4834 560.44 81.4191 559.405 83.0843C558.37 84.7495 556.859 86.0694 555.063 86.8772C553.266 87.6849 551.266 87.9442 549.314 87.6223C547.362 87.3004 545.546 86.4117 544.096 85.0686C542.646 83.7255 541.628 81.9883 541.169 80.0767C540.71 78.1651 540.832 76.165 541.518 74.3292C542.45 71.8757 544.321 69.8925 546.727 68.8109C549.132 67.7293 551.876 67.6367 554.362 68.5534Z" fill="#B0A79E" fill-opacity="0.05"/>
<path d="M551.485 191.913C553.356 186.161 552.903 179.909 550.225 174.518C547.548 169.126 542.861 165.029 537.184 163.117C533.151 161.78 528.817 161.629 524.689 162.682L496.22 171.71C495.83 171.711 495.449 171.835 495.13 172.064C494.812 172.293 494.572 172.616 494.444 172.989C494.355 173.365 494.369 173.757 494.483 174.125C494.598 174.493 494.808 174.822 495.094 175.078L512.454 199.264C515.117 202.589 518.67 205.076 522.696 206.433C528.404 208.259 534.607 207.763 539.984 205.051C545.361 202.339 549.487 197.625 551.485 191.913ZM520.562 181.571C521.19 179.694 522.355 178.044 523.909 176.828C525.464 175.613 527.339 174.888 529.296 174.744C531.254 174.6 533.206 175.044 534.907 176.02C536.607 176.996 537.98 178.46 538.85 180.227C539.721 181.993 540.05 183.984 539.797 185.946C539.544 187.908 538.72 189.754 537.428 191.25C536.137 192.746 534.437 193.825 532.543 194.351C530.648 194.877 528.645 194.826 526.786 194.204C524.302 193.359 522.254 191.559 521.088 189.193C519.923 186.827 519.734 184.088 520.562 181.571Z" fill="#B0A79E" fill-opacity="0.05"/>
<path d="M652.803 116.404C647.511 119.335 643.579 124.216 641.861 129.985C640.142 135.755 640.776 141.947 643.624 147.218C645.661 150.946 648.728 154.012 652.466 156.057L679.444 168.87C679.73 169.135 680.093 169.304 680.482 169.354C680.871 169.404 681.267 169.331 681.614 169.146C681.936 168.931 682.193 168.635 682.361 168.288C682.528 167.941 682.598 167.557 682.564 167.175L686.362 137.647C686.682 133.398 685.779 129.156 683.761 125.418C680.831 120.19 675.956 116.323 670.174 114.639C664.392 112.956 658.159 113.589 652.803 116.404ZM668.365 145.057C666.626 146.001 664.649 146.414 662.683 146.243C660.717 146.071 658.852 145.323 657.322 144.093C655.792 142.864 654.667 141.207 654.089 139.334C653.51 137.46 653.505 135.454 654.073 133.568C654.642 131.682 655.758 130.002 657.281 128.739C658.804 127.477 660.666 126.689 662.631 126.476C664.596 126.262 666.575 126.632 668.319 127.54C670.063 128.447 671.493 129.85 672.429 131.573C673.67 133.885 673.94 136.599 673.179 139.124C672.418 141.649 670.688 143.781 668.365 145.057Z" fill="#B0A79E" fill-opacity="0.05"/>
</svg>
